<svg id="Layer_1" enable-background="new 0 0 511.998 511.998" height="512" viewBox="0 0 511.998 511.998" width="512" xmlns="http://www.w3.org/2000/svg"><g><g><path d="m503.629 40.263c-8.264-8.509-20.244-11.282-31.273-7.23l-327.822 120.694c-5.183 1.907-7.837 7.656-5.929 12.839s7.656 7.839 12.839 5.929l310.39-114.275-350.246 219.54-85.532-41.387c-.128-.062-.257-.121-.388-.178-5.426-2.345-5.707-7.497-5.664-9.02.042-1.493.611-6.522 6.171-8.562l40.79-15.018c5.183-1.907 7.837-7.656 5.929-12.839-1.907-5.183-7.655-7.837-12.839-5.929l-40.778 15.013c-11.535 4.23-18.918 14.487-19.265 26.769-.342 12.094 6.521 22.999 17.504 27.85l85.799 41.516 24.158 128.519c2.214 11.82 10.889 20.75 22.641 23.303 9.001 1.954 18.153-.371 24.997-5.983.011-.008.022-.014.033-.022l60.381-43.292 68.778 73.405c.067.072.136.145.206.215 5.588 5.618 13.076 8.678 20.816 8.678 1.958 0 3.933-.196 5.896-.596 9.768-1.988 17.802-8.676 21.487-17.876l157.134-390.68c4.372-10.909 1.991-22.934-6.213-31.383zm-349.269 387.991c-1.829-.397-6.194-1.918-7.229-7.447l-23.832-126.783 310.913-194.888-232.754 249.359c-.073.078-.135.163-.205.243-.094.107-.186.215-.275.326-.164.204-.317.414-.463.627-.063.092-.128.18-.188.274-.217.342-.417.692-.588 1.052l-35.993 74.039c-3.31 4.129-7.985 3.501-9.386 3.198zm43.301-27.215 13.747-28.279 10.325 11.02zm136.487 53.838c-1.197 2.989-3.718 5.077-6.915 5.728-3.113.638-6.187-.276-8.453-2.498l-96.32-102.801 266.624-285.644z"/><path d="m105.752 188.661c5.522 0 10-4.478 10-10s-4.478-10-10-10h-.007c-5.522 0-9.996 4.478-9.996 10s4.481 10 10.003 10z"/></g></g></svg>