<svg id="Layer_1" enable-background="new 0 0 512.002 512.002" height="512" viewBox="0 0 512.002 512.002" width="512" xmlns="http://www.w3.org/2000/svg"><g><g><path d="m512.002 185.584c0-8.029-3.112-15.563-8.763-21.212l-7.071-7.072v-.001c-11.697-11.695-30.729-11.697-42.427 0l-33.74 33.74v-81.039c0-2.652-1.054-5.195-2.929-7.071l-100.001-100c-1.876-1.875-4.419-2.929-7.071-2.929h-150c-5.522 0-10 4.478-10 10s4.478 10 10 10h140v20h-209.999c-5.522 0-10 4.478-10 10 0 16.542-13.458 30-30 30-5.522 0-10 4.478-10 10v332.002c0 5.522 4.478 10 10 10 16.542 0 30 13.458 30 30 0 5.522 4.478 10 10 10h240c5.522 0 10-4.478 10-10 0-16.542 13.458-30 30-30 5.522 0 10-4.478 10-10v-91.966l20-20v171.966c0 5.514-4.486 10-10 10h-360.001c-5.514 0-10-4.486-10-10v-452.002c0-5.514 4.486-10 10-10h40c5.522 0 10-4.478 10-10s-4.478-10-10-10h-40c-16.542 0-30 13.458-30 30v452.002c0 16.542 13.458 30 30 30h360.001c16.542 0 30-13.458 30-30v-191.966l83.238-83.239c5.651-5.651 8.763-13.185 8.763-21.213zm-132.001 45.455v-111.039h20v91.039zm-60.001-196.897 65.858 65.858h-55.858c-5.514 0-10-4.486-10-10zm40.001 378.865c-19.562 3.987-35.008 19.434-38.995 38.995h-222.01c-3.987-19.562-19.434-35.008-38.995-38.995v-314.012c19.562-3.987 35.008-19.433 38.995-38.995h201.004v30c0 16.542 13.458 30 30 30h30.001v131.039l-90.108 90.108c-1.098 1.098-1.925 2.437-2.416 3.909l-1.565 4.695h-135.91c-5.522 0-10 4.478-10 10s4.478 10 10 10h129.243l-7.166 21.5h-122.077c-5.522 0-10 4.478-10 10s4.478 10 10 10h129.285c.305 0 .611-.018.917-.046.11-.01.219-.026.328-.039.189-.024.378-.052.566-.086.13-.024.26-.05.388-.079.165-.037.328-.081.492-.126.132-.037.264-.071.394-.113.025-.008.051-.014.076-.022l53.033-17.677c1.473-.491 2.812-1.318 3.909-2.416l40.609-40.61v62.97zm-74.297-59.388 11.26-11.26 21.215 21.215-11.26 11.26-31.821 10.606zm203.393-160.965-156.775 156.777-21.215-21.215 156.777-156.775c1.873-1.873 4.384-2.905 7.07-2.905 2.688 0 5.198 1.032 7.071 2.905l7.072 7.072c1.872 1.873 2.904 4.384 2.904 7.07s-1.031 5.198-2.904 7.071z"/><path d="m130.002 162.251h159.993c5.522 0 10-4.478 10-10s-4.478-10-10-10h-159.993c-5.522 0-10 4.478-10 10s4.477 10 10 10z"/><path d="m130.002 245.251h159.993c5.522 0 10-4.478 10-10s-4.478-10-10-10h-159.993c-5.522 0-10 4.478-10 10s4.477 10 10 10z"/><path d="m130.002 286.751h79.996c5.522 0 10-4.478 10-10s-4.478-10-10-10h-79.996c-5.522 0-10 4.478-10 10s4.477 10 10 10z"/><path d="m130.002 328.251h79.996c5.522 0 10-4.478 10-10s-4.478-10-10-10h-79.996c-5.522 0-10 4.478-10 10s4.477 10 10 10z"/><path d="m169.998 120.75h80.001c5.522 0 10-4.478 10-10s-4.478-10-10-10h-80.001c-5.522 0-10 4.478-10 10s4.478 10 10 10z"/><path d="m115.003 20c5.522 0 10-4.478 10-10s-4.478-10-10-10h-.007c-5.522 0-9.996 4.478-9.996 10s4.48 10 10.003 10z"/></g></g></svg>