<svg id="Layer_1" enable-background="new 0 0 512.002 512.002" height="512" viewBox="0 0 512.002 512.002" width="512" xmlns="http://www.w3.org/2000/svg"><g><g><path d="m426.001 50.001h-42.706c-3.465-5.967-9.91-10-17.293-10h-61.004c-4.646-22.794-24.851-40.001-48.997-40.001s-44.351 17.207-48.997 40.001h-61.003c-7.383 0-13.828 4.032-17.293 10h-42.707c-16.542 0-30 13.458-30 30v402.001c0 16.542 13.458 30 30 30h340c16.542 0 30-13.458 30-30v-402.002c0-16.542-13.458-29.999-30-29.999zm-280 10h69.999c5.523 0 10-4.477 10-10 0-16.543 13.458-30.001 30.001-30.001 16.542 0 30.001 13.458 30.001 30.001 0 5.523 4.478 10 10 10h69.998l.001 40h-220l-.002-40zm290 422.001c0 5.514-4.486 10-10 10h-340c-5.514 0-10-4.486-10-10v-402.002c0-5.514 4.486-10 10-10h40v20h-20c-5.523 0-10 4.477-10 10v50.001c0 5.523 4.477 10 10 10s10-4.477 10-10v-40.001h12.706c3.465 5.968 9.91 10 17.293 10h220.001c7.383 0 13.828-4.032 17.293-10h12.707v342.001h-280v-212c0-5.523-4.477-10-10-10s-10 4.477-10 10v222c0 5.523 4.477 10 10 10h300c5.522 0 10-4.477 10-10v-362c0-5.523-4.478-10-10-10h-20.001v-20h40c5.514 0 10 4.486 10 10v402.001z"/><path d="m256.005 60.001c5.522 0 10-4.477 10-10s-4.478-10-10-10h-.007c-5.523 0-9.996 4.477-9.996 10s4.48 10 10.003 10z"/><path d="m146.003 331.997h219.997c5.522 0 10-4.477 10-10s-4.478-10-10-10h-209.997v-161.995c0-5.523-4.477-10-10-10s-10 4.477-10 10v171.995c0 5.523 4.477 10 10 10z"/><path d="m206.004 291.001c16.542 0 30-13.458 30-30 0-6.267-1.935-12.09-5.234-16.907l21.197-28.964c2.736.824 5.633 1.272 8.633 1.272 8.453 0 16.094-3.52 21.552-9.163l33.972 15.514c-.077.874-.124 1.756-.124 2.649 0 16.542 13.457 30 29.999 30s30-13.458 30-30-13.458-30-30-30c-8.453 0-16.095 3.52-21.553 9.164l-33.971-15.514c.077-.874.124-1.757.124-2.651 0-16.542-13.457-30-29.999-30s-30 13.458-30 30c0 6.267 1.935 12.089 5.234 16.907l-21.197 28.964c-2.736-.824-5.632-1.272-8.633-1.272-16.542 0-30 13.458-30 30s13.458 30.001 30 30.001zm139.996-75.598c5.514 0 10 4.486 10 10s-4.486 10-10 10-9.999-4.486-9.999-10 4.485-10 9.999-10zm-85.4-39.001c5.514 0 9.999 4.486 9.999 10s-4.485 10-9.999 10-10-4.486-10-10 4.486-10 10-10zm-54.596 74.599c5.514 0 10 4.486 10 10s-4.486 10-10 10-10-4.486-10-10 4.486-10 10-10z"/><path d="m146.003 381.999h75.597c5.523 0 10-4.477 10-10s-4.477-10-10-10h-75.597c-5.523 0-10 4.477-10 10s4.477 10 10 10z"/><path d="m146.003 422h75.597c5.523 0 10-4.477 10-10s-4.477-10-10-10h-75.597c-5.523 0-10 4.477-10 10s4.477 10 10 10z"/><path d="m366 361.999h-75.597c-5.522 0-10 4.477-10 10s4.478 10 10 10h75.597c5.522 0 10-4.477 10-10s-4.478-10-10-10z"/><path d="m366 402h-75.597c-5.522 0-10 4.477-10 10s4.478 10 10 10h75.597c5.522 0 10-4.477 10-10s-4.478-10-10-10z"/><path d="m106.001 205.006c5.523 0 10-4.477 10-10v-.007c0-5.523-4.477-9.996-10-9.996s-10 4.48-10 10.003 4.477 10 10 10z"/></g></g></svg>