<svg id="Layer_1" enable-background="new 0 0 512.002 512.002" height="512" viewBox="0 0 512.002 512.002" width="512" xmlns="http://www.w3.org/2000/svg"><g><g><path d="m166 382.002c0 49.626 40.374 90 90 90s90-40.374 90-90-40.374-90-90-90-90 40.373-90 90zm160 0c0 38.598-31.402 70-70 70s-70-31.402-70-70 31.402-70 70-70 70 31.402 70 70z"/><path d="m246 332.002v5.282c-2.309 1.216-4.476 2.793-6.415 4.733-10.397 10.397-10.396 27.315 0 37.713l18.688 18.688c1.26 1.259 1.953 2.933 1.953 4.714s-.693 3.455-1.953 4.714c-1.259 1.259-2.934 1.953-4.714 1.953s-3.455-.693-4.714-1.953c-3.906-3.905-10.236-3.905-14.143 0-3.905 3.905-3.905 10.237 0 14.143 3.259 3.259 7.158 5.495 11.297 6.711v3.303c0 5.523 4.478 10 10 10s10-4.477 10-10v-5.281c2.309-1.216 4.476-2.793 6.416-4.733 5.036-5.037 7.811-11.733 7.811-18.856s-2.774-13.819-7.811-18.856l-18.688-18.688c-2.6-2.599-2.6-6.829 0-9.428 2.597-2.599 6.827-2.6 9.428 0 3.906 3.905 10.236 3.905 14.143 0 3.905-3.905 3.905-10.237 0-14.143-3.259-3.259-7.159-5.496-11.298-6.712v-3.303c0-5.523-4.478-10-10-10s-10 4.476-10 9.999z"/><path d="m414.33 44.405c-42.675-28.22-100.383-44.405-158.33-44.405-57.885 0-115.56 16.163-158.237 44.346-46.276 30.56-71.762 72.421-71.762 117.864-.005 5.781 2.927 11.196 8.044 14.857 6.411 4.588 15.208 5.792 22.957 3.141 22.917-7.833 59.121-7.294 77.44 5.336.88 2.89 2.526 5.594 4.863 7.883 7.366 7.214 20.018 8.657 29.429 3.353 17.785-10.026 37.203-16.868 57.267-20.304v79.027c-57.267 13.579-100 65.14-100 126.5 0 71.682 58.317 130 130 130s130-58.318 130-130c0-61.359-42.733-112.92-100-126.5v-79.023c19.608 3.359 38.608 9.968 56.057 19.624 3.893 2.517 8.728 3.897 13.68 3.897 10.696 0 19.432-6.069 21.878-14.495 17.967-12.291 53.51-13.051 76.286-5.663 2.958 1.169 6.244 1.785 9.535 1.785 12.653 0 22.564-8.525 22.564-19.409-.001-45.41-25.454-87.251-71.671-117.814zm-48.33 337.597c0 60.654-49.346 110-110 110s-110-49.346-110-110 49.346-110 110-110 110 49.346 110 110zm-100-129.619c-3.301-.252-6.636-.381-10-.381s-6.699.129-10 .381v-78.18c3.327-.188 6.66-.3 10-.3 3.339 0 6.673.11 10 .298zm89.737-72.383c-1.331 0-2.35-.371-2.859-.718-.249-.169-.506-.328-.769-.475-29.291-16.292-62.524-24.904-96.108-24.904-33.979 0-67.552 8.802-97.087 25.453-1.586.894-4.037.68-5.207.059.067-7.391.763-21.518 4.289-40.325 1.018-5.428-2.558-10.654-7.986-11.671-5.425-1.019-10.653 2.557-11.672 7.986-1.754 9.354-3.041 18.746-3.809 27.586-24.894-10.594-59.95-9.926-83.996-1.707-1.849.633-3.645.176-4.522-.278.463-38.055 22.714-73.515 62.775-99.97 23.167-15.299 51.214-26.764 81.356-33.633-6.337 5.888-12.267 12.765-17.775 20.635-3.166 4.525-2.065 10.76 2.46 13.927 4.523 3.166 10.76 2.065 13.927-2.46 17.677-25.26 40.302-38.068 67.248-38.068 83.953 0 101.889 122.7 102.294 158.024-.492.248-1.346.539-2.559.539zm107.699-18.373c-1.045 0-1.803-.225-2.254-.413-.237-.099-.479-.188-.723-.269-23.829-7.845-58.424-8.302-82.976 2.081-2.19-25.49-9.015-59.194-23.086-89.224-9-19.207-19.949-34.739-32.601-46.417 30.207 6.875 58.306 18.365 81.501 33.704 40.032 26.473 62.258 61.943 62.696 99.986-.48.251-1.334.552-2.557.552z"/><path d="m160.055 83.837h-.007c-5.522 0-9.996 4.477-9.996 10s4.48 10 10.003 10 10-4.477 10-10-4.477-10-10-10z"/></g></g></svg>