<svg id="Layer_1" enable-background="new 0 0 512.002 512.002" height="512" viewBox="0 0 512.002 512.002" width="512" xmlns="http://www.w3.org/2000/svg"><g><g><path d="m109.721 361.272c2.918-5.902 4.565-12.539 4.565-19.556v-17.143c0-24.419-19.866-44.286-44.286-44.286-24.419 0-44.285 19.866-44.285 44.286v17.143c0 7.017 1.647 13.654 4.565 19.556-18.891 12.994-30.28 34.275-30.28 57.586v17.142c0 5.523 4.478 10 10 10h120c5.522 0 10-4.477 10-10v-17.141c0-23.304-11.39-44.592-30.279-57.587zm-64.006-36.699c0-13.391 10.895-24.286 24.285-24.286 13.392 0 24.286 10.895 24.286 24.286v17.143c0 13.391-10.895 24.286-24.286 24.286s-24.285-10.895-24.285-24.286zm74.285 101.427h-100v-7.141c0-17.198 8.702-32.857 23.036-42.047 7.474 5.756 16.823 9.19 26.964 9.19s19.491-3.434 26.965-9.19c14.333 9.19 23.035 24.854 23.035 42.046z"/><path d="m462.002 280.288h-290.99c-6.859 0-13.062 3.684-16.186 9.613-3.075 5.836-2.609 12.927 1.214 18.504l18.248 26.613v59.349c0 28.47 22.43 51.632 50 51.632h237.714c27.57 0 50-23.162 50-51.632v-62.448c0-28.469-22.43-51.631-50-51.631zm30 114.08c0 17.442-13.458 31.632-30 31.632h-237.714c-16.542 0-30-14.19-30-31.632v-62.448c0-2.019-.611-3.99-1.753-5.655l-17.811-25.977h287.277c16.542 0 30 14.19 30 31.632v62.448z"/><path d="m481.706 147.02c2.928-5.91 4.582-12.558 4.582-19.589v-17.143c0-24.419-19.866-44.286-44.286-44.286-24.419 0-44.285 19.866-44.285 44.286v17.143c0 7.03 1.654 13.678 4.582 19.588-18.681 12.979-30.296 34.565-30.296 57.554v17.141c0 5.523 4.478 10 10 10h120c5.522 0 10-4.477 10-10v-17.141c-.001-22.967-11.621-44.571-30.297-57.553zm-63.989-36.732c0-13.391 10.895-24.286 24.285-24.286 13.392 0 24.286 10.895 24.286 24.286v17.143c0 13.391-10.895 24.286-24.286 24.286s-24.285-10.895-24.285-24.286zm74.285 101.426h-100v-7.141c0-16.969 8.882-32.876 23.05-42.035 7.471 5.749 16.815 9.179 26.95 9.179s19.479-3.43 26.95-9.178c14.164 9.161 23.05 25.082 23.05 42.035z"/><path d="m50 231.714h237.714c27.57 0 50-23.162 50-51.632v-59.349l18.247-26.612c3.824-5.577 4.291-12.667 1.216-18.504-3.124-5.93-9.326-9.614-16.187-9.614h-180.989c-5.522 0-10 4.477-10 10s4.478 10 10 10h177.276l-17.811 25.977c-1.142 1.665-1.753 3.636-1.753 5.655v62.448c0 17.442-13.458 31.632-30 31.632h-237.713c-16.542 0-30-14.19-30-31.632v-62.448c0-17.442 13.458-31.632 30-31.632h20.001c5.522 0 10-4.477 10-10s-4.478-10-10-10h-20.001c-27.57 0-50 23.162-50 51.632v62.448c0 28.469 22.43 51.631 50 51.631z"/><path d="m297.712 124.574c0-5.523-4.478-10-10-10h-237.71c-5.522 0-10 4.477-10 10s4.478 10 10 10h237.71c5.522 0 10-4.477 10-10z"/><path d="m50.002 163.144c-5.522 0-10 4.477-10 10s4.478 10 10 10h118.855c5.522 0 10-4.477 10-10s-4.478-10-10-10z"/><path d="m462 328.858h-237.71c-5.522 0-10 4.477-10 10s4.478 10 10 10h237.71c5.522 0 10-4.477 10-10s-4.478-10-10-10z"/><path d="m343.146 377.429h-118.856c-5.522 0-10 4.477-10 10s4.478 10 10 10h118.855c5.522 0 10-4.477 10-10s-4.477-10-9.999-10z"/><path d="m115.004 86.002c5.522 0 10-4.477 10-10s-4.478-10-10-10h-.007c-5.522 0-9.996 4.477-9.996 10s4.48 10 10.003 10z"/></g></g></svg>