<svg id="Layer_1" enable-background="new 0 0 512 512" height="512" viewBox="0 0 512 512" width="512" xmlns="http://www.w3.org/2000/svg"><g><g><path d="m482 25.999h-342c-5.523 0-10 4.477-10 10s4.477 10 10 10h342c5.514 0 10 4.486 10 10v10c0 5.514-4.486 10-10 10h-452c-5.514 0-10-4.486-10-10v-10c0-5.514 4.486-10 10-10h20c5.523 0 10-4.477 10-10s-4.477-10-10-10h-20c-16.542 0-30 13.458-30 30v10c0 13.036 8.361 24.151 20 28.279v291.721c0 11.028 8.972 20 20 20h206v21.721c-11.639 4.128-20 15.244-20 28.28 0 16.542 13.458 30 30 30s30-13.458 30-30c0-13.037-8.361-24.152-20-28.28v-21.72h206c11.028 0 20-8.972 20-20v-291.721c11.639-4.128 20-15.243 20-28.279v-10c0-16.543-13.458-30.001-30-30.001zm-226 440.002c-5.514 0-10-4.486-10-10s4.486-10 10-10 10 4.486 10 10-4.485 10-10 10zm-216-80.002v-290h432v290.001z"/><path d="m418.311 137.961h-38.417c-16.812 0-30.489 13.677-30.489 30.489 0 7.134 2.42 13.809 6.686 19.106l-20.432 20.432-17.372-17.373c-11.888-11.887-31.228-11.886-43.116 0l-51.385 51.386-34.275-34.275c-11.887-11.886-31.228-11.887-43.115 0l-74.267 74.268c-11.886 11.887-11.886 31.228 0 43.115 5.944 5.943 13.751 8.915 21.558 8.915s15.614-2.972 21.558-8.915l52.709-52.71 34.275 34.275c5.758 5.758 13.414 8.93 21.557 8.93s15.799-3.171 21.558-8.929l51.386-51.386 17.372 17.373c11.887 11.887 31.229 11.886 43.115 0l41.989-41.989c5.297 4.266 11.972 6.685 19.106 6.685 16.812 0 30.489-13.677 30.489-30.489v-38.419c-.001-16.812-13.678-30.489-30.49-30.489zm10.489 68.906c0 5.784-4.706 10.489-10.489 10.489-4.043 0-7.659-2.261-9.436-5.899-1.417-2.903-4.151-4.943-7.337-5.476-3.188-.533-6.435.507-8.72 2.792l-49.744 49.744c-4.087 4.088-10.741 4.089-14.83 0l-24.443-24.443c-1.875-1.875-4.419-2.929-7.071-2.929s-5.196 1.054-7.071 2.929l-58.457 58.457c-1.98 1.981-4.614 3.072-7.415 3.072s-5.434-1.091-7.415-3.071l-41.346-41.347c-1.875-1.875-4.419-2.929-7.071-2.929s-5.196 1.054-7.071 2.929l-59.781 59.781c-4.088 4.088-10.741 4.089-14.831 0-4.089-4.088-4.089-10.742 0-14.83l74.267-74.268c4.09-4.089 10.743-4.089 14.831 0l41.346 41.346c3.905 3.905 10.237 3.905 14.143 0l58.457-58.457c4.089-4.089 10.743-4.088 14.831 0l24.443 24.443c1.875 1.875 4.419 2.929 7.071 2.929s5.196-1.054 7.071-2.929l35.258-35.258c2.285-2.285 3.325-5.533 2.792-8.72s-2.572-5.92-5.476-7.337c-3.639-1.777-5.9-5.393-5.9-9.436 0-5.784 4.706-10.489 10.489-10.489h38.417c5.784 0 10.489 4.705 10.489 10.489v38.418z"/><path d="m95.004 45.999c5.523 0 10-4.477 10-10s-4.477-10-10-10h-.007c-5.523 0-9.996 4.477-9.996 10s4.48 10 10.003 10z"/></g></g></svg>