<svg id="Layer_1" enable-background="new 0 0 512 512" height="512" viewBox="0 0 512 512" width="512" xmlns="http://www.w3.org/2000/svg"><g><g><path d="m462 116.002h-96v-30.003c0-27.57-22.43-50-50-50h-120c-27.57 0-50 22.43-50 50v30.002h-96c-27.57 0-50 22.43-50 50v99.999c0 13.036 8.361 24.152 20 28.28v131.72c0 27.57 22.43 50 50 50h372c27.57 0 50-22.43 50-50v-131.72c11.639-4.128 20-15.243 20-28.28v-99.999c0-27.569-22.43-49.999-50-49.999zm-296-.001v-30.002c0-16.542 13.458-30 30-30h120c16.542 0 30 13.458 30 30v30.002h-20v-30.002c0-5.523-4.478-10-10-10h-119.999c-5.522 0-10 4.477-10 10v30.002h-20.001c0 .001 0 .001 0 0zm140 .001h-99.999v-20.003h99.999zm136 339.998h-372c-16.542 0-30-13.458-30-30v-130h146v9.999c0 4.285 2.729 8.093 6.787 9.47 9.286 3.15 18.708 5.594 28.213 7.335v28.198c0 19.299 15.701 35 35.001 35 19.299 0 34.999-15.701 34.999-35v-28.198c9.505-1.741 18.927-4.184 28.213-7.335 4.058-1.376 6.787-5.185 6.787-9.47v-9.999h146v130c0 16.542-13.458 30-30 30zm-201-130.592c4.991.388 9.993.591 15 .591s10.01-.203 15-.591v25.593c0 8.271-6.729 15-14.999 15-8.271 0-15.001-6.729-15.001-15zm-35-26.722v-22.686c0-5.514 4.486-10 10-10h80c5.514 0 10 4.486 10 10v22.686c-32.771 9.711-67.226 9.711-100 0zm286-32.686c0 5.514-4.486 10-10 10h-156c0-16.542-13.458-30-30-30h-80c-16.542 0-30 13.458-30 30h-156c-5.514 0-10-4.486-10-10v-99.999c0-16.542 13.458-30 30-30h412c16.542 0 30 13.458 30 30z"/><path d="m159.995 156.002c-5.522 0-10 4.477-10 10s4.478 10 10 10h.007c5.522 0 9.997-4.477 9.997-10s-4.481-10-10.004-10z"/><path d="m114.998 156.002h-54.996c-5.522 0-10 4.477-10 10s4.478 10 10 10h54.996c5.522 0 10-4.477 10-10s-4.477-10-10-10z"/></g></g></svg>