<svg id="Layer_1" enable-background="new 0 0 512.002 512.002" height="512" viewBox="0 0 512.002 512.002" width="512" xmlns="http://www.w3.org/2000/svg"><g><g><path d="m256.001 0c-141.159 0-256.001 114.842-256.001 256.001s114.842 256 256.001 256 256.001-114.841 256.001-256-114.842-256.001-256.001-256.001zm235.774 246.001h-40.026c-5.057-100.134-85.614-180.691-185.748-185.748v-40.026c122.192 5.121 220.653 103.582 225.774 225.774zm-245.774-225.774v40.034c-6.075.31-12.157.897-18.176 1.764-5.467.787-9.26 5.857-8.472 11.324.787 5.467 5.855 9.26 11.323 8.472 5.076-.731 10.202-1.24 15.324-1.531v12.512c0 5.523 4.478 10 10 10s10-4.477 10-10v-12.511c41.009 2.309 78.305 18.721 107.114 44.454l-8.786 8.786c-3.905 3.905-3.905 10.237 0 14.142 1.953 1.953 4.512 2.929 7.071 2.929s5.118-.977 7.071-2.929l8.786-8.786c25.733 28.809 42.146 66.106 44.454 107.115h-12.51c-5.522 0-10 4.477-10 10s4.478 10 10 10h12.511c-2.309 41.009-18.721 78.305-44.453 107.114l-8.787-8.786c-3.906-3.905-10.238-3.905-14.143 0s-3.905 10.237 0 14.142l8.787 8.786c-28.809 25.733-66.106 42.145-107.115 44.454v-12.512c0-5.523-4.478-10-10-10s-10 4.477-10 10v12.511c-41.009-2.309-78.305-18.721-107.115-44.454l8.786-8.787c3.905-3.905 3.905-10.237 0-14.142-3.906-3.905-10.236-3.905-14.143 0l-8.786 8.786c-25.73-28.807-42.143-66.104-44.452-107.113h12.511c5.522 0 10-4.477 10-10s-4.478-10-10-10h-12.507c2.29-39.807 18.176-77.627 44.428-107.136l8.808 8.807c1.953 1.953 4.512 2.929 7.071 2.929s5.119-.977 7.071-2.929c3.905-3.905 3.905-10.237 0-14.142l-8.825-8.824c4.319-3.865 8.834-7.542 13.56-10.989 4.462-3.254 5.441-9.51 2.187-13.972-3.254-4.463-9.511-5.441-13.972-2.187-24.436 17.821-44.709 41.39-58.628 68.158-12.86 24.731-20.283 52.296-21.72 80.285h-40.047c5.121-122.192 103.582-220.653 225.774-225.774zm-225.774 245.774h40.026c5.057 100.134 85.614 180.691 185.748 185.748v40.026c-122.192-5.121-220.653-103.582-225.774-225.774zm245.774 225.774v-40.026c100.134-5.057 180.691-85.614 185.748-185.748h40.026c-5.121 122.192-103.582 220.653-225.774 225.774z"/><path d="m178.566 353.397c2.999 0 6.036-.692 8.907-2.11l103.672-51.063c3.974-1.958 7.112-5.096 9.08-9.082l51.061-103.668c3.84-7.791 2.332-16.811-3.84-22.979-6.145-6.139-15.142-7.621-22.918-3.782l-103.67 51.062c-.001 0-.002.001-.003.001-3.974 1.959-7.111 5.096-9.079 9.081l-51.061 103.668c-3.84 7.791-2.332 16.811 3.841 22.979 3.876 3.874 8.886 5.893 14.01 5.893zm154.76-174.721-46.361 94.146-47.779-47.778zm-108.288 60.505 47.778 47.777-94.139 46.368z"/><path d="m185.814 93.698c5.522 0 10-4.477 10-10s-4.478-10-10-10h-.008c-5.522 0-9.996 4.477-9.996 10s4.482 10 10.004 10z"/></g></g></svg>