<svg id="Layer_1" enable-background="new 0 0 512.002 512.002" height="512" viewBox="0 0 512.002 512.002" width="512" xmlns="http://www.w3.org/2000/svg"><g><g><path d="m395.378 439.042c2.752-5.149 4.318-11.023 4.318-17.257 0-16.877-11.443-31.124-26.975-35.412-1.7-31.886-12.604-53.839-23.186-75.118-10.467-21.049-20.396-41.036-21.999-70.975 15.294-4.443 26.508-18.571 26.508-35.278 0-11.734-5.536-22.192-14.126-28.923 15.46-19.123 24.127-43.262 24.127-68.035-.001-59.576-48.469-108.044-108.044-108.044-11.698 0-23.216 1.865-34.233 5.543-5.239 1.749-8.068 7.414-6.319 12.652 1.749 5.239 7.415 8.066 12.652 6.319 8.972-2.995 18.358-4.514 27.9-4.514 48.547 0 88.043 39.496 88.043 88.043 0 22.366-8.671 44.096-23.932 60.337-.928-.071-1.862-.118-2.808-.118h-122.607c-.949 0-1.886.048-2.817.119-15.462-16.383-23.923-37.636-23.923-60.338 0-9.54 1.518-18.925 4.512-27.896 1.749-5.238-1.081-10.903-6.319-12.651-5.238-1.749-10.903 1.081-12.652 6.319-3.677 11.015-5.542 22.531-5.542 34.228 0 25.168 8.477 48.884 24.103 68.054-8.576 6.732-14.102 17.181-14.102 28.904 0 16.707 11.214 30.836 26.508 35.278-1.603 29.938-11.532 49.926-21.999 70.975-10.581 21.279-21.486 43.232-23.186 75.118-15.532 4.288-26.975 18.535-26.975 35.412 0 6.235 1.566 12.109 4.318 17.257-17.356 2.922-30.623 18.047-30.623 36.221 0 20.258 16.481 36.739 36.739 36.739h266.522c20.258 0 36.739-16.481 36.739-36.74.001-18.172-13.266-33.297-30.622-36.219zm-217.42-234.041c0-9.23 7.509-16.739 16.739-16.739h122.607c9.23 0 16.739 7.509 16.739 16.739s-7.509 16.739-16.739 16.739h-122.607c-9.23 0-16.739-7.509-16.739-16.739zm2.417 115.159c10.915-21.951 22.164-44.59 24.043-78.419h103.165c1.879 33.829 13.128 56.469 24.043 78.419 9.782 19.672 19.074 38.379 20.972 64.885h-193.194c1.897-26.506 11.189-45.213 20.971-64.885zm-31.33 84.885h213.911c9.23 0 16.739 7.509 16.739 16.74 0 9.23-7.509 16.739-16.739 16.739h-213.911c-9.23 0-16.739-7.509-16.739-16.739.001-9.231 7.509-16.74 16.739-16.74zm240.217 86.957h-266.522c-9.23 0-16.739-7.509-16.739-16.74 0-9.229 7.509-16.739 16.739-16.739h266.522c9.23 0 16.739 7.509 16.739 16.739s-7.509 16.74-16.739 16.74z"/><path d="m186.674 48.716c5.523 0 10-4.477 10-10s-4.477-10-10-10h-.007c-5.523 0-9.996 4.477-9.996 10s4.48 10 10.003 10z"/></g></g></svg>