<svg id="Layer_1" enable-background="new 0 0 512.002 512.002" height="512" viewBox="0 0 512.002 512.002" width="512" xmlns="http://www.w3.org/2000/svg"><g><g><path d="m376 342.005h-27.745c.136-.134.279-.258.414-.393 16.371-16.371 22.824-40.458 16.842-62.858-1.667-6.251-6.59-11.099-12.861-12.673-22.323-5.863-46.307.612-62.604 16.908-1.425 1.425-2.771 2.913-4.044 4.449v-30.938c57.266-13.58 99.999-65.14 99.999-126.5 0-71.682-58.317-130-130-130-17.606 0-34.69 3.463-50.775 10.294-5.083 2.159-7.455 8.03-5.296 13.113s8.031 7.454 13.113 5.296c13.6-5.775 28.053-8.704 42.958-8.704 60.654 0 110 49.346 110 110s-49.346 110-110 110-110-49.346-110-110c0-14.903 2.927-29.354 8.701-42.951 2.159-5.083-.213-10.955-5.296-13.113-5.082-2.158-10.955.212-13.113 5.296-6.829 16.083-10.292 33.164-10.292 50.768 0 61.359 42.733 112.919 99.999 126.499v30.938c-1.273-1.536-2.618-3.023-4.043-4.448-16.296-16.295-40.276-22.772-62.601-16.909-6.274 1.574-11.198 6.423-12.863 12.671-5.983 22.403.47 46.49 16.841 62.861.135.135.278.26.414.394h-27.745c-16.542 0-30 13.458-30 30v9.999c0 13.649 9.165 25.19 21.661 28.812l15.704 73.281c3.688 17.212 15.099 27.905 29.778 27.905h165.711c14.679 0 26.089-10.692 29.777-27.905l15.704-73.281c12.497-3.623 21.662-15.164 21.662-28.813v-9.999c0-16.541-13.458-29.999-30-29.999zm-29.5-56.847c3.589 15.169-.938 31.276-11.974 42.312-7.891 7.891-18.386 12.435-29.275 13.08l17.73-17.73c3.905-3.905 3.905-10.237 0-14.143s-10.237-3.905-14.143 0l-17.732 17.732c.643-10.887 5.185-21.381 13.082-29.277 11.029-11.029 27.146-15.563 42.312-11.974zm-90.499-25.158c3.365 0 6.7-.129 10-.381v82.386h-20.001v-82.386c3.301.252 6.637.381 10.001.381zm-90.499 25.158c15.169-3.586 31.284.945 42.312 11.974 7.895 7.895 12.437 18.388 13.081 29.276l-17.731-17.731c-3.905-3.905-10.237-3.905-14.143 0s-3.905 10.237 0 14.143l17.73 17.73c-10.888-.645-21.385-5.189-29.275-13.08-11.035-11.036-15.563-27.139-11.974-42.312zm-39.5 86.847c0-5.514 4.486-10 10-10h239.998c5.514 0 10 4.486 10 10v9.999c0 5.514-4.486 10-10 10h-239.997c-5.514 0-10-4.486-10-10v-9.999zm223.076 107.902c-.608 2.837-3.142 12.095-10.222 12.095h-165.71c-7.08 0-9.614-9.258-10.222-12.095l-14.551-67.903h215.257z"/><path d="m248.846 155.843c-3.905-3.905-10.237-3.905-14.143 0s-3.905 10.237 0 14.143c3.26 3.259 7.159 5.496 11.298 6.712v3.302c0 5.523 4.477 10 10 10s10-4.477 10-10v-5.282c2.309-1.216 4.476-2.793 6.415-4.732 5.037-5.037 7.811-11.734 7.811-18.857s-2.774-13.82-7.811-18.855l-18.688-18.689c-1.259-1.259-1.953-2.933-1.953-4.714s.693-3.455 1.953-4.714c1.259-1.259 2.933-1.952 4.713-1.952 1.781 0 3.455.693 4.714 1.953 3.905 3.906 10.237 3.907 14.142 0 3.905-3.905 3.906-10.237 0-14.142-3.201-3.201-7.073-5.484-11.297-6.726v-3.29c0-5.523-4.477-10-10-10s-10 4.477-10 10v5.272c-2.334 1.234-4.496 2.822-6.415 4.742-5.037 5.037-7.811 11.733-7.811 18.856s2.774 13.82 7.811 18.856l18.689 18.689c1.259 1.259 1.952 2.933 1.952 4.713 0 1.781-.693 3.455-1.953 4.714-2.598 2.601-6.828 2.6-9.427.001z"/><path d="m256.002 220c49.626 0 90-40.374 90-90s-40.374-90-90-90-90 40.374-90 90c-.001 49.626 40.373 90 90 90zm0-160c38.598 0 70 31.402 70 70s-31.402 70-70 70-70-31.402-70-70 31.402-70 70-70z"/><path d="m171.144 55.148c2.561 0 5.122-.978 7.075-2.931 3.905-3.905 3.905-10.237 0-14.142s-10.236-3.905-14.142 0l-.005.005c-3.905 3.905-3.903 10.234.002 14.139 1.953 1.954 4.511 2.929 7.07 2.929z"/></g></g></svg>