<svg id="Layer_1" enable-background="new 0 0 512 512" height="512" viewBox="0 0 512 512" width="512" xmlns="http://www.w3.org/2000/svg"><g><g><path d="m437.017 100.984c-48.353-48.354-112.64-74.984-181.017-74.984-56.229 0-110.775 18.533-155.222 52.445-2.159-4.249-5.985-7.39-10.746-8.67-5.905-1.59-12.248.107-16.546 4.416l-25.29 25.289c-4.412 4.412-6.079 10.879-4.351 16.878 1.324 4.595 4.427 8.271 8.613 10.402-33.919 44.448-52.458 99.006-52.458 155.241 0 22.056 17.944 40 40 40s40-17.944 40-40c0-97.047 78.953-176 176-176 97.046 0 176 78.953 176 176 0 22.056 17.944 40 40 40 22.057 0 40.001-17.944 40.001-40-.001-68.377-26.63-132.664-74.984-181.017zm-352.955-9.084 6.58 24.736-24.736-6.58zm-24.062 190.101c0 11.028-8.972 20-20 20s-20-8.972-20-20c0-54.482 18.867-107.26 53.238-149.299l17.093 4.547c1.484.394 2.978.586 4.455.586 4.49 0 8.807-1.783 12.092-5.114 4.291-4.351 5.949-10.683 4.337-16.544l-4.507-16.943c7.274-5.947 14.873-11.423 22.743-16.423l20.049 34.726c-53.825 34.975-89.5 95.628-89.5 164.464zm106.799-174.501-20.029-34.69c33.478-17.478 70.93-26.81 109.23-26.81 39.382 0 76.534 9.71 109.21 26.841l-20.01 34.659c-26.771-13.74-57.097-21.5-89.2-21.5-32.104.001-62.429 7.76-89.201 21.5zm305.201 194.501c-11.028 0-20-8.972-20-20 0-68.835-35.675-129.488-89.5-164.464l20.019-34.675c65.769 41.933 109.481 115.525 109.481 199.139 0 11.028-8.972 20-20 20z"/><path d="m302.686 217.265c-9.502-16.853-26.826-26.994-46.357-27.13-19.448-.176-36.895 9.793-46.635 26.567l-108.04 186.347c-10.911 17.478-11.801 38.076-2.372 55.137 9.483 17.157 27.538 27.814 47.121 27.814h219.239.055c19.329 0 36.661-10.052 46.37-26.897 9.632-16.712 9.6-36.647-.082-53.32zm92.052 231.851c-6.094 10.574-16.948 16.884-29.052 16.884-.011 0-.023 0-.034 0h-219.249c-12.306 0-23.653-6.701-29.615-17.489-5.972-10.805-5.279-23.555 1.9-34.979.063-.101.125-.202.184-.305l108.122-186.488c6.045-10.411 16.853-16.605 28.948-16.605h.248c12.287.086 23.164 6.438 29.097 16.992.021.039.043.077.065.115l109.334 188.579c6.047 10.414 6.066 22.861.052 33.296z"/><path d="m256 254.942c-16.542 0-30 13.458-30 30v60c0 16.542 13.458 30 30 30s30-13.458 30-30v-60c0-16.542-13.458-30-30-30zm10 90c0 5.514-4.485 10-10 10s-10-4.486-10-10v-60c0-5.514 4.486-10 10-10s10 4.486 10 10z"/><path d="m256 384.943c-16.542 0-30 13.458-30 30s13.458 30 30 30 30-13.458 30-30-13.458-30-30-30zm0 40c-5.514 0-10-4.486-10-10s4.486-10 10-10 10 4.486 10 10-4.486 10-10 10z"/></g></g></svg>