<svg id="Layer_1" enable-background="new 0 0 512 512" height="512" viewBox="0 0 512 512" width="512" xmlns="http://www.w3.org/2000/svg"><g><g><path d="m325.367 141.307-82.865-82.866c-8.472-8.471-19.771-13.137-31.816-13.137-12.047 0-23.346 4.666-31.816 13.136l-3.762 3.762c-3.906 3.905-3.906 10.236-.001 14.142 3.903 3.905 10.236 3.906 14.142.001l3.763-3.762c4.693-4.694 10.971-7.279 17.675-7.279 6.703 0 12.98 2.585 17.674 7.279l75.794 75.794-29.232 29.232c-2.295 2.296-3.334 5.563-2.785 8.762.55 3.2 2.617 5.934 5.547 7.333 1.66.793 3.168 1.862 4.482 3.177 6.335 6.334 6.335 16.642 0 22.976-6.334 6.335-16.641 6.334-22.977 0-1.314-1.314-2.383-2.822-3.176-4.482-1.399-2.929-4.133-4.997-7.332-5.546-3.208-.551-6.468.49-8.763 2.785l-29.233 29.233-21.119-21.119c13.257-14.193 12.967-36.525-.869-50.361-13.837-13.836-36.168-14.127-50.362-.869l-21.119-21.12 8.395-8.394c3.905-3.906 3.905-10.237 0-14.143-3.906-3.905-10.236-3.905-14.143 0l-98.33 98.331c-8.473 8.472-13.139 19.771-13.139 31.817s4.666 23.346 13.137 31.817l165.731 165.731c8.772 8.771 20.295 13.158 31.817 13.158 11.521 0 23.044-4.386 31.816-13.158l82.865-82.865c3.905-3.905 3.905-10.237 0-14.143l-36.304-36.304c-2.296-2.296-5.564-3.335-8.762-2.785-3.2.549-5.934 2.617-7.333 5.546-.793 1.659-1.862 3.168-3.177 4.483-3.068 3.068-7.148 4.758-11.488 4.758s-8.419-1.689-11.487-4.758c-6.335-6.335-6.335-16.643.001-22.978 1.313-1.313 2.821-2.382 4.483-3.176 2.929-1.399 4.996-4.133 5.545-7.333.549-3.199-.49-6.466-2.785-8.761l-29.233-29.233 21.119-21.119c6.734 6.294 15.468 9.747 24.731 9.747 9.682 0 18.783-3.771 25.63-10.616 6.846-6.846 10.616-15.949 10.616-25.63 0-9.264-3.452-17.998-9.747-24.731l28.19-28.189c3.907-3.906 3.907-10.238.002-14.143zm-298.088 132.357c-4.694-4.694-7.279-10.971-7.279-17.675s2.585-12.981 7.279-17.674l75.794-75.794 29.232 29.233c2.295 2.294 5.554 3.333 8.761 2.785 3.199-.548 5.933-2.615 7.333-5.544.794-1.662 1.863-3.171 3.177-4.485 6.336-6.333 16.644-6.334 22.978 0 6.335 6.334 6.335 16.642.001 22.976-1.316 1.315-2.824 2.385-4.483 3.177-2.93 1.399-4.997 4.133-5.547 7.333-.549 3.2.49 6.467 2.785 8.762l29.233 29.232-21.119 21.12c-14.194-13.259-36.525-12.968-50.362.869s-14.127 36.168-.869 50.361l-21.119 21.119zm204.526 17.587c-13.258 14.192-12.968 36.524.869 50.361 6.846 6.846 15.948 10.616 25.63 10.616 9.263 0 17.996-3.451 24.731-9.747l21.118 21.119-75.794 75.794c-4.693 4.694-10.971 7.279-17.674 7.279-6.704 0-12.981-2.585-17.675-7.279l-75.795-75.794 29.232-29.232c2.295-2.296 3.334-5.563 2.785-8.762-.55-3.2-2.617-5.934-5.547-7.333-1.659-.792-3.167-1.862-4.482-3.177-6.335-6.334-6.335-16.642 0-22.976 3.068-3.069 7.148-4.759 11.488-4.759s8.42 1.69 11.487 4.758c1.316 1.316 2.385 2.825 3.178 4.484 1.399 2.929 4.133 4.997 7.333 5.546 3.201.547 6.466-.49 8.762-2.785l29.232-29.233z"/><path d="m467.005 169.896h-117.19c-5.522 0-10 4.477-10 10v51.342c0 3.246 1.575 6.29 4.226 8.165s6.047 2.346 9.106 1.264c1.735-.613 3.559-.924 5.418-.924 8.958 0 16.246 7.288 16.246 16.247s-7.288 16.247-16.246 16.247c-1.859 0-3.683-.311-5.418-.924-3.063-1.083-6.456-.61-9.106 1.264-2.65 1.875-4.226 4.918-4.226 8.165v51.341c0 5.523 4.478 10 10 10h39.868c.661 19.41 16.657 34.996 36.226 34.996 19.567 0 35.563-15.586 36.225-34.996h39.866c5.522 0 10-4.477 10-10v-117.19c0-24.811-20.185-44.997-44.995-44.997zm24.995 152.186h-41.341c-3.246 0-6.29 1.575-8.164 4.226-1.875 2.65-2.346 6.045-1.265 9.105.613 1.735.924 3.559.924 5.418 0 8.958-7.288 16.247-16.246 16.247-8.959 0-16.247-7.288-16.247-16.247 0-1.86.311-3.683.924-5.418 1.081-3.061.61-6.456-1.265-9.105-1.874-2.65-4.918-4.226-8.164-4.226h-41.342v-29.867c19.409-.662 34.996-16.658 34.996-36.226s-15.587-35.564-34.996-36.226v-29.867h107.19c13.782 0 24.995 11.213 24.995 24.996v107.19z"/><path d="m150.364 111.096c5.522 0 10-4.477 10-10s-4.478-10-10-10h-.008c-5.522 0-9.996 4.477-9.996 10s4.482 10 10.004 10z"/></g></g></svg>