<svg id="Layer_1" enable-background="new 0 0 512.001 512.001" height="512" viewBox="0 0 512.001 512.001" width="512" xmlns="http://www.w3.org/2000/svg"><g><g><path d="m365.531 376.683-17.65-81.015c10.65-4.611 18.123-15.219 18.123-27.543 0-16.542-13.458-30-30-30h-.658l-36.133-165.847c-.207-1.08-.49-2.135-.832-3.166l16.084-25.532c5.687-9.027 6.087-20.308 1.046-29.442-4.959-8.985-14.119-14.138-25.132-14.138h-68.751c-11.013 0-20.173 5.153-25.132 14.138-5.041 9.134-4.641 20.415 1.046 29.442l16.057 25.49c-.515 1.539-.889 3.123-1.094 4.733l-66.023 302.879c-.023.105-.044.21-.063.316-1.396 7.57.726 15.19 5.824 20.96l84.274 104.721c4.768 5.932 11.854 9.322 19.469 9.321h.208c7.683-.063 14.785-3.549 19.502-9.57l84.803-105.379c4.544-5.653 6.401-12.961 5.097-20.05-.02-.106-.042-.212-.065-.318zm-166.369 47.677 126.235-126.235h2.551l7.788 35.75-116.023 116.023zm146.841-156.235c0 5.514-4.486 10-10 10h-50c-5.514 0-10-4.486-10-10s4.486-10 10-10h50c5.514 0 10 4.486 10 10zm-89.792-3.475-82.911 82.912 12.847-58.938 36.328-36.328c3.905-3.905 3.905-10.237 0-14.143-3.906-3.905-10.236-3.905-14.143 0l-14.301 14.301 12.847-58.937 80.698-80.698 8.245 37.845-23.85 23.85c-3.905 3.905-3.905 10.237 0 14.143 1.953 1.953 4.512 2.929 7.071 2.929s5.118-.976 7.071-2.929l14.767-14.767 8.245 37.845-26.599 26.599c-13.767 1.596-24.719 12.547-26.315 26.316zm-27.359-171.934c4.031 4.157 9.417 7.284 17.153 7.284h19.999c2.632 0 4.988-.367 7.116-1.008l-58.356 58.356zm82.169 145.409 3.166-3.166.69 3.166zm-97.015-214.322c1.393-2.523 3.957-3.803 7.622-3.803h68.751c3.665 0 6.229 1.279 7.622 3.803 1.499 2.716 1.319 6.295-.458 9.117l-20.002 31.75c-1.334 2.119-2.482 4.191-3.593 6.196-4.208 7.597-5.545 9.134-7.945 9.134h-19.999c-2.399 0-3.736-1.537-7.945-9.134-1.11-2.005-2.259-4.077-3.594-6.196l-20.001-31.75c-1.777-2.822-1.957-6.401-.458-9.117zm-46.726 360.968c-.494-.545-.849-1.174-1.057-1.846l96.238-96.238c5.499 6.96 14.005 11.44 23.543 11.44h11.108l-110.563 110.561-18.888-23.47c-.123-.154-.251-.302-.381-.447zm177.633-.253-84.845 105.431c-.035.044-.069.087-.104.132-1.335 1.716-3.195 1.916-3.934 1.921-.947-.012-2.618-.224-3.93-1.856l-19.776-24.575 108.47-108.47 5.149 23.637c.213 1.327-.161 2.7-1.03 3.78z"/><path d="m247.226 203.403h-.008c-5.522 0-9.996 4.477-9.996 10s4.481 10 10.004 10 10-4.477 10-10-4.478-10-10-10z"/></g></g></svg>