<svg id="Layer_1" enable-background="new 0 0 512.001 512.001" height="512" viewBox="0 0 512.001 512.001" width="512" xmlns="http://www.w3.org/2000/svg"><g><g><path d="m425.62 178.344 20.948-20.948c7.796-7.798 7.796-20.486-.001-28.284l-17.678-17.678c-7.799-7.798-20.486-7.796-28.284 0l-20.947 20.948c-27.059-19.781-59.003-33.25-93.657-38.229v-29.153h20c11.028 0 20-8.972 20-20v-25.001c0-11.027-8.972-19.999-20-19.999h-100.001c-11.028 0-20 8.972-20 19.999v25.001c0 11.028 8.972 20 20 20h20v29.154c-34.654 4.979-66.598 18.448-93.657 38.229l-20.947-20.948c-7.798-7.796-20.485-7.797-28.284.001l-17.678 17.678c-7.797 7.797-7.797 20.485 0 28.284l20.947 20.947c-25.375 34.712-40.38 77.462-40.38 123.657 0 40.517 11.568 79.85 33.454 113.749 2.996 4.64 9.185 5.973 13.826 2.978 4.64-2.996 5.973-9.186 2.977-13.826-19.794-30.659-30.257-66.241-30.257-102.901 0-104.766 85.234-190 190-190s190 85.234 190 190-85.234 190-190 190c-35 0-69.205-9.597-98.918-27.753-4.712-2.88-10.867-1.393-13.747 3.319-2.879 4.713-1.394 10.868 3.319 13.748 32.854 20.076 70.666 30.687 109.347 30.687 115.794 0 210-94.206 210-210-.001-46.196-15.006-88.946-40.382-123.659zm-10.873-52.767 17.678 17.677-19.434 19.434c-5.539-6.235-11.442-12.138-17.677-17.677zm-208.749-105.577 100.002-.001v25.001h-100zm-126.422 123.255 17.677-17.678 19.434 19.434c-6.235 5.539-12.138 11.442-17.677 17.677zm166.424-51.01v-27.245h20.001v27.245c-3.315-.156-6.648-.244-10-.244s-6.686.088-10.001.244z"/><path d="m256.001 462.002c88.224 0 160-71.776 160-160s-71.776-160-160-160c-88.225 0-160 71.776-160 160s71.776 160 160 160zm-130-170.001h-9.64c2.205-31.092 14.602-59.414 33.87-81.626l6.774 6.774c1.953 1.953 4.512 2.929 7.071 2.929s5.119-.976 7.071-2.929c3.905-3.905 3.905-10.237 0-14.143l-6.774-6.774c22.212-19.268 50.534-31.666 81.626-33.871v9.64c0 5.523 4.477 10 10 10s10-4.477 10-10v-9.64c31.093 2.205 59.414 14.602 81.626 33.871l-6.774 6.774c-3.905 3.905-3.905 10.237 0 14.143 1.953 1.953 4.512 2.929 7.071 2.929s5.119-.976 7.071-2.929l6.774-6.774c19.268 22.213 31.665 50.534 33.87 81.626h-9.637c-5.523 0-10 4.477-10 10s4.477 10 10 10h9.64c-2.205 31.093-14.602 59.414-33.87 81.626l-6.774-6.774c-3.905-3.905-10.237-3.905-14.143 0s-3.905 10.237 0 14.143l6.774 6.774c-22.213 19.268-50.534 31.665-81.626 33.871v-9.64c0-5.523-4.477-10-10-10s-10 4.477-10 10v9.64c-31.092-2.205-59.414-14.603-81.626-33.871l6.774-6.774c3.905-3.905 3.905-10.237 0-14.143s-10.237-3.905-14.143 0l-6.774 6.774c-19.268-22.213-31.665-50.534-33.87-81.626h9.64c5.523 0 10-4.477 10-10s-4.478-10-10.001-10z"/><path d="m256.001 342.001c22.056 0 40-17.944 40-40 0-10.118-3.784-19.364-10-26.416v-53.583c0-16.542-13.458-30-30-30s-30 13.458-30 30v53.584c-6.217 7.052-10 16.297-10 26.415 0 22.057 17.944 40 40 40zm0-20c-11.028 0-20-8.972-20-20s8.972-20 20-20 20 8.972 20 20-8.972 20-20 20zm-.001-109.998c5.514 0 10 4.486 10 10v41.265c-3.197-.826-6.548-1.266-10-1.266s-6.803.44-10 1.266v-41.265c.001-5.514 4.487-10 10-10z"/><path d="m116.343 435.165h-.008c-5.523 0-9.996 4.477-9.996 10s4.481 10 10.004 10 10-4.477 10-10-4.477-10-10-10z"/></g></g></svg>