<svg id="Layer_1" enable-background="new 0 0 512.001 512.001" height="512" viewBox="0 0 512.001 512.001" width="512" xmlns="http://www.w3.org/2000/svg"><g><g><path d="m386.001 200c55.14 0 100-44.86 100-100s-44.86-100-100-100-100 44.86-100 100 44.86 100 100 100zm0-180c44.112 0 80 35.888 80 80s-35.888 80-80 80-80-35.888-80-80 35.887-80 80-80z"/><path d="m383.559 127.795c-1.781 0-3.455-.693-4.714-1.953-3.905-3.905-10.237-3.905-14.143 0s-3.905 10.237 0 14.143c3.26 3.259 7.159 5.496 11.297 6.712v3.303c0 5.523 4.477 10 10 10s10-4.477 10-10v-5.283c2.309-1.216 4.476-2.793 6.415-4.732 5.037-5.037 7.811-11.733 7.811-18.856s-2.774-13.82-7.811-18.856l-18.688-18.688c-1.259-1.259-1.953-2.933-1.953-4.714s.693-3.455 1.953-4.714c1.259-1.259 2.933-1.952 4.714-1.952s3.455.693 4.714 1.953c3.905 3.905 10.237 3.905 14.143 0s3.905-10.237 0-14.143c-3.201-3.201-7.073-5.483-11.298-6.725v-3.29c0-5.523-4.477-10-10-10s-10 4.477-10 10v5.272c-2.333 1.234-4.495 2.822-6.415 4.742-5.037 5.037-7.811 11.733-7.811 18.856s2.774 13.82 7.811 18.856l18.688 18.688c1.259 1.259 1.953 2.933 1.953 4.714s-.693 3.455-1.953 4.714c-1.258 1.26-2.932 1.953-4.713 1.953z"/><path d="m466.001 242.001h-160.001c-11.028 0-20 8.972-20 20v30c-11.028 0-20 8.972-20 20v30c0 11.028 8.972 20 20 20v30c-11.028 0-20 8.972-20 20v30c0 11.028 8.972 20 20 20v30c0 11.028 8.972 20 20 20h160c11.028 0 20-8.972 20-20v-30c0-11.028-8.972-20-20-20v-30h.001c11.028 0 20-8.972 20-20v-30c0-11.028-8.972-20-20-20h-.001v-30h.001c11.028 0 20-8.972 20-20v-30c-.001-11.028-8.972-20-20-20zm.002 250h-160.002v-30h160zm-20.003-50h-140-20v-30h20 140zm20.003-50h-20.001-.001c-.001 0-.001 0-.002 0h-139.989c-.003 0-.006 0-.01 0v-30h160zm-20.003-50h-140-20v-30h20 140zm-140-50v-30h160l.002 30z"/><path d="m226.001 442.001v-30c0-11.028-8.972-20-20-20h-35.003c-5.523 0-10 4.477-10 10s4.477 10 10 10h35.003v30h-140-20v-30h34.997c5.523 0 10-4.477 10-10s-4.477-10-10-10h-34.998c-11.028 0-20 8.972-20 20v30c0 11.028 8.972 20 20 20h.001v30c0 11.028 8.972 20 20 20h160c11.028 0 20-8.972 20-20v-30c0-11.028-8.971-20-20-20zm-160 50.001v-30h160l.002 30z"/><path d="m269.5 173.998c0-16.371-13.629-30-30-30h-37.5c-16.542 0-30 13.458-30 30 0 6.945 2.33 13.447 6.444 18.632l-103.656 103.655c-5.666 5.666-8.786 13.199-8.786 21.212s3.121 15.546 8.787 21.212c5.848 5.848 13.53 8.771 21.211 8.771s15.363-2.924 21.211-8.771l103.656-103.657c5.185 4.114 11.688 6.445 18.632 6.445 16.542 0 30-13.458 30-30v-37.499zm-20 37.5c0 5.514-4.486 10-10 10-3.855 0-7.302-2.155-8.996-5.625-1.418-2.903-4.151-4.943-7.338-5.476-3.185-.53-6.435.507-8.72 2.792l-111.376 111.378c-3.898 3.898-10.241 3.898-14.139 0s-3.898-10.241 0-14.139l111.377-111.377c2.285-2.285 3.325-5.533 2.792-8.72s-2.572-5.92-5.476-7.338c-3.469-1.694-5.625-5.141-5.625-8.996 0-5.514 4.486-10 10-10h37.5c5.433 0 10 4.57 10 10v37.501z"/><path d="m136.001 402.001c0-5.523-4.477-10-10-10h-.008c-5.523 0-9.996 4.477-9.996 10s4.481 10 10.004 10 10-4.477 10-10z"/></g></g></svg>