<svg id="Layer_1" enable-background="new 0 0 512.002 512.002" height="512" viewBox="0 0 512.002 512.002" width="512" xmlns="http://www.w3.org/2000/svg"><g><g><path d="m248.845 281.844c-3.904-3.904-10.237-3.905-14.142.001-3.905 3.905-3.905 10.237.001 14.142 3.259 3.259 7.158 5.495 11.297 6.711v3.303c0 5.523 4.478 10 10 10s10-4.477 10-10v-5.282c2.309-1.216 4.476-2.793 6.415-4.732 5.037-5.037 7.812-11.734 7.812-18.857s-2.774-13.82-7.812-18.856l-18.688-18.688c-2.6-2.599-2.6-6.829 0-9.428 2.6-2.6 6.828-2.6 9.428 0 3.906 3.905 10.236 3.905 14.143 0 3.905-3.905 3.905-10.237 0-14.143-3.259-3.259-7.159-5.495-11.298-6.711v-3.303c0-5.523-4.478-10-10-10s-10 4.477-10 10v5.282c-2.309 1.216-4.475 2.792-6.415 4.732-10.397 10.397-10.397 27.315 0 37.712l18.688 18.689c1.259 1.259 1.952 2.933 1.952 4.713 0 1.781-.693 3.455-1.953 4.715-2.597 2.6-6.827 2.6-9.428 0z"/><path d="m437.021 74.981c-48.352-48.352-112.639-74.981-181.02-74.981-59.736 0-117.882 21.027-163.725 59.206-4.244 3.534-4.819 9.84-1.285 14.083 3.535 4.244 9.84 4.819 14.084 1.285 39.694-33.058 89.398-52.162 140.926-54.358v35.374c-17.595.868-34.927 4.016-51.652 9.411-5.257 1.695-8.144 7.331-6.448 12.587 1.366 4.236 5.292 6.933 9.516 6.933 1.017 0 2.052-.157 3.071-.486 17.9-5.773 36.577-8.701 55.514-8.701 14.104 0 28.212 1.66 41.931 4.934 5.374 1.28 10.768-2.034 12.048-7.406 1.282-5.372-2.033-10.766-7.405-12.048-11.994-2.862-24.257-4.595-36.573-5.211v-35.376c125.509 5.26 226.001 108.994 226.001 235.774 0 41.105-10.806 81.685-31.248 117.352-2.746 4.792-1.089 10.902 3.703 13.648 1.568.899 3.276 1.326 4.964 1.326 3.467 0 6.837-1.806 8.685-5.029 22.176-38.69 33.896-82.708 33.896-127.297-.002-68.38-26.631-132.668-74.983-181.02z"/><path d="m328.671 421.447c-5.056 2.224-7.351 8.125-5.127 13.18 1.647 3.746 5.313 5.976 9.158 5.976 1.345 0 2.712-.272 4.021-.849 72.863-32.053 119.944-104.18 119.944-183.752 0-37.213-10.317-73.619-29.838-105.283-19.385-31.444-47.005-56.892-79.876-73.593-4.919-2.499-10.942-.539-13.444 4.386-2.502 4.924-.538 10.943 4.386 13.445 57.938 29.437 94.979 86.692 98.475 151.044h-35.392c-1.815-26.816-10.907-52.337-26.604-74.333-3.208-4.496-9.453-5.541-13.948-2.332-4.496 3.208-5.539 9.453-2.331 13.949 15.204 21.306 23.24 46.451 23.24 72.716 0 42.724-21.494 80.517-54.231 103.153l-17.74-30.726c22.207-16.405 36.638-42.761 36.638-72.427 0-49.626-40.374-90-90-90-20.839 0-40.497 7.317-56.099 19.758l-25.126-25.127c21.892-18.674 50.263-29.965 81.226-29.965 26.267 0 51.411 8.037 72.716 23.24 4.497 3.209 10.741 2.164 13.948-2.331 3.208-4.496 2.165-10.741-2.331-13.949-24.715-17.638-53.876-26.961-84.333-26.961-80.138 0-145.334 65.196-145.334 145.334 0 22.703 5.424 45.412 15.686 65.672 1.762 3.479 5.279 5.484 8.929 5.483 1.52 0 3.063-.348 4.511-1.081 4.927-2.495 6.897-8.512 4.402-13.439-8.85-17.472-13.527-37.056-13.527-56.635 0-30.963 11.292-59.334 29.966-81.226l25.098 25.099c-7.256 9.028-12.845 19.517-16.188 31.068-1.536 5.305 1.521 10.851 6.825 12.386 5.303 1.533 10.852-1.521 12.386-6.826 8.604-29.733 36.258-50.5 67.247-50.5 38.598 0 70 31.402 70 70s-31.402 70-70 70c-30.987 0-58.633-20.767-67.23-50.5-1.534-5.306-7.085-8.361-12.384-6.829-5.306 1.534-8.363 7.079-6.829 12.384 11.057 38.238 46.604 64.945 86.443 64.945 12.816 0 25.011-2.698 36.057-7.548l17.743 30.732c-16.311 7.785-34.555 12.15-53.8 12.15-32.704 0-63.658-12.526-87.16-35.271-3.967-3.841-10.3-3.737-14.14.231-3.841 3.969-3.737 10.299.231 14.14 24.843 24.044 56.87 38.235 91.068 40.556v35.397c-94.987-5.208-170.667-84.122-170.667-180.386 0-48.266 18.794-93.637 52.92-127.755 3.905-3.905 3.906-10.236.002-14.142-3.905-3.906-10.237-3.906-14.143-.001-35.538 35.531-56.106 82.047-58.536 131.899h-35.363c2.196-51.532 21.299-101.235 54.357-140.926 3.535-4.244 2.96-10.549-1.283-14.084-4.244-3.533-10.549-2.961-14.084 1.284-38.18 45.838-59.206 103.983-59.206 163.724 0 68.38 26.629 132.668 74.98 181.02 48.353 48.352 112.64 74.98 181.021 74.98 75.353 0 146.513-32.953 195.234-90.409 3.572-4.212 3.053-10.523-1.159-14.095s-10.523-3.053-14.095 1.159c-44.915 52.966-110.516 83.344-179.98 83.344-126.78 0-230.514-100.491-235.774-226h35.357c5.229 106.021 93.122 190.667 200.417 190.667 11.924 0 23.86-1.053 35.478-3.128 5.438-.972 9.057-6.167 8.085-11.604s-6.173-9.058-11.603-8.085c-7.213 1.289-14.566 2.129-21.96 2.533v-35.4c72.185-4.93 130.053-62.799 134.983-134.983h35.407c-3.737 67.638-45.181 127.935-107.72 155.447z"/><path d="m166.526 93.313c0-5.523-4.478-10-10-10h-.008c-5.522 0-9.996 4.477-9.996 10s4.481 10 10.004 10 10-4.477 10-10z"/></g></g></svg>