<svg id="Layer_1" enable-background="new 0 0 512.002 512.002" height="512" viewBox="0 0 512.002 512.002" width="512" xmlns="http://www.w3.org/2000/svg"><g><g><path d="m256.001 0c-34.134 0-67.623 9.17-96.848 26.52-4.75 2.819-6.314 8.954-3.495 13.703 2.82 4.75 8.956 6.317 13.704 3.494 26.137-15.516 56.096-23.717 86.639-23.717 93.738 0 170 76.262 170 170 0 54.165-26.182 105.569-70.036 137.504-17.812 12.971-26.96 26.666-29.33 44.499h-141.268c-2.37-17.833-11.518-31.528-29.33-44.499-43.854-31.935-70.036-83.339-70.036-137.504 0-30.548 8.2-60.505 23.713-86.633 2.82-4.749 1.256-10.885-3.493-13.704-4.749-2.818-10.884-1.256-13.704 3.493-17.347 29.217-26.516 62.705-26.516 96.844 0 30.456 7.383 60.741 21.352 87.581 13.513 25.965 33.192 48.818 56.911 66.091 13.08 9.525 19.373 18.27 21.173 30.257-11.345 4.283-19.437 15.249-19.437 28.074 0 7.678 2.902 14.688 7.663 19.999-4.761 5.312-7.663 12.322-7.663 20 0 13.036 8.361 24.152 20 28.28v11.72c0 16.542 13.458 30 30 30h120c16.542 0 30-13.458 30-30v-11.72c11.639-4.128 20-15.243 20-28.28 0-7.678-2.902-14.688-7.663-20 4.761-5.312 7.663-12.322 7.663-20 0-12.825-8.092-23.79-19.436-28.073 1.8-11.987 8.093-20.732 21.173-30.257 23.718-17.272 43.397-40.126 56.911-66.091 13.969-26.84 21.352-57.125 21.352-87.581.001-104.767-85.233-190-189.999-190zm80 392.003c5.514 0 10 4.486 10 10s-4.486 9.999-10 9.999h-160c-5.514 0-10-4.486-10-10s4.486-9.999 10-9.999zm-20 99.999h-120c-5.514 0-10-4.486-10-10v-10h140v10c0 5.514-4.486 10-10 10zm20-40h-160c-5.514 0-10-4.486-10-10s4.486-10 10-10h160c5.514 0 10 4.486 10 10s-4.486 10-10 10z"/><path d="m128.722 72.721c5.523 0 10-4.478 10-10s-4.477-10-10-10h-.007c-5.523 0-9.996 4.478-9.996 10s4.48 10 10.003 10z"/><path d="m256.001 320c71.682 0 130-58.317 130-130s-58.317-130-130-130-130 58.317-130 130 58.318 130 130 130zm0-240c60.654 0 110 49.346 110 110s-49.346 110-110 110-110-49.346-110-110 49.346-110 110-110z"/><path d="m256.001 280c49.626 0 90-40.374 90-90s-40.374-90-90-90-90 40.374-90 90 40.374 90 90 90zm0-160c38.598 0 70 31.402 70 70s-31.402 70-70 70-70-31.402-70-70 31.402-70 70-70z"/><path d="m253.56 217.797c-1.781 0-3.455-.693-4.714-1.953-3.905-3.904-10.237-3.904-14.143 0-3.905 3.905-3.905 10.237 0 14.143 3.259 3.259 7.159 5.495 11.297 6.711v3.302c0 5.522 4.477 10 10 10s10-4.478 10-10v-5.281c2.309-1.216 4.476-2.793 6.416-4.732 10.397-10.397 10.397-27.315 0-37.713l-18.688-18.688c-2.6-2.6-2.6-6.828 0-9.428 2.599-2.6 6.829-2.6 9.428 0 3.905 3.904 10.237 3.904 14.143 0 3.905-3.905 3.905-10.237 0-14.143-3.259-3.259-7.159-5.495-11.297-6.711v-3.304c0-5.522-4.477-10-10-10s-10 4.478-10 10v5.282c-2.309 1.216-4.476 2.793-6.416 4.732-5.037 5.037-7.811 11.733-7.811 18.856s2.774 13.819 7.811 18.856l18.688 18.688c1.259 1.259 1.953 2.934 1.953 4.714s-.693 3.455-1.953 4.714c-1.259 1.262-2.933 1.955-4.714 1.955z"/></g></g></svg>