<svg id="Layer_1" enable-background="new 0 0 512.002 512.002" height="512" viewBox="0 0 512.002 512.002" width="512" xmlns="http://www.w3.org/2000/svg"><g><g><path d="m116.957 242.666c-40.899 0-74.173 33.274-74.173 74.174s33.274 74.173 74.173 74.173 74.174-33.273 74.174-74.173-33.275-74.174-74.174-74.174zm0 128.346c-29.871 0-54.173-24.302-54.173-54.173s24.302-54.174 54.173-54.174c29.872 0 54.174 24.303 54.174 54.174s-24.303 54.173-54.174 54.173z"/><path d="m496.553 258.791c-.074-.143-.139-.289-.22-.43l-81.796-141.675c-17.701-30.66-50.552-44.734-83.692-35.855-23.813 6.381-41.356 22.972-48.803 44.74-8.371 2.77-17.109 4.18-26.039 4.18-8.957 0-17.72-1.417-26.113-4.203-7.236-20.881-23.819-37.151-46.241-43.998-31.618-9.657-64.189 2.133-82.983 30.033-3.085 4.581-1.874 10.795 2.707 13.881 4.582 3.086 10.795 1.875 13.881-2.707 16.73-24.838 43.074-27.415 60.554-22.079 17.455 5.331 36.106 21.033 36.106 49.118v24.368c-5.968 3.465-10 9.91-10 17.294v25c0 7.384 4.032 13.83 10 17.294v17.744c-21.039-31.117-56.649-51.612-96.956-51.612-18.382 0-35.784 4.268-51.276 11.857l6.765-11.716c2.762-4.783 1.123-10.898-3.66-13.66-4.782-2.761-10.899-1.123-13.66 3.66l-39.457 68.336c-.081.141-.146.287-.22.43-9.826 17.115-15.45 36.937-15.45 58.049 0 64.49 52.466 116.956 116.957 116.956 44.106 0 82.583-24.544 102.503-60.689 11.177-5.986 23.784-9.154 36.542-9.154 12.759 0 25.367 3.169 36.542 9.155 19.92 36.144 58.397 60.688 102.503 60.688 64.49 0 116.956-52.466 116.956-116.956-.001-21.112-5.624-40.934-15.45-58.049zm-160.532-158.641c18.328-4.913 45.351-.908 61.195 26.536l49.106 85.054c-15.492-7.589-32.894-11.857-51.276-11.857-40.307 0-75.918 20.495-96.957 51.612v-17.744c5.968-3.465 10-9.91 10-17.294v-25c0-7.384-4.032-13.829-10-17.294v-24.368c.001-29.142 20.434-44.957 37.932-49.645zm-112.108 116.308-.002-25h64.18v25zm32.088-66.707c7.508 0 14.907-.825 22.136-2.412-.025.816-.048 1.633-.048 2.457v21.662h-44.177v-21.662c0-.823-.021-1.64-.047-2.456 7.23 1.586 14.628 2.411 22.136 2.411zm-139.044 264.045c-53.462 0-96.957-43.495-96.957-96.956s43.495-96.956 96.957-96.956 96.956 43.494 96.956 96.956-43.495 96.956-96.956 96.956zm139.044-69.843c-8.875 0-17.693 1.228-26.187 3.591 2.666-9.789 4.098-20.082 4.098-30.705v-80.382h44.177v80.382c0 10.622 1.432 20.915 4.098 30.704-8.492-2.362-17.31-3.59-26.186-3.59zm139.045 69.843c-53.462 0-96.957-43.494-96.957-96.956s43.495-96.956 96.957-96.956 96.956 43.494 96.956 96.956-43.494 96.956-96.956 96.956z"/><path d="m395.046 242.666c-40.899 0-74.173 33.274-74.173 74.174s33.274 74.173 74.173 74.173 74.174-33.273 74.174-74.173-33.275-74.174-74.174-74.174zm0 128.346c-29.871 0-54.173-24.302-54.173-54.173s24.302-54.174 54.173-54.174c29.872 0 54.174 24.303 54.174 54.174s-24.303 54.173-54.174 54.173z"/><path d="m86.289 166.046c5.523 0 10-4.478 10-10s-4.477-10-10-10h-.007c-5.523 0-9.996 4.478-9.996 10s4.48 10 10.003 10z"/></g></g></svg>