<svg id="Layer_1" enable-background="new 0 0 511.999 511.999" height="512" viewBox="0 0 511.999 511.999" width="512" xmlns="http://www.w3.org/2000/svg"><g><g><path d="m434.158 235.001 48.467-107.249c2.209-4.149 3.375-8.813 3.375-13.517 0-16.12-13.377-29.234-29.819-29.234h-145v-33.267c0-16.12-13.377-29.234-29.819-29.234h-70.359c-5.522 0-10 4.478-10 10s4.478 10 10 10h70.359c5.414 0 9.819 4.143 9.819 9.234v241.53c0 5.093-4.405 9.235-9.819 9.235h-190.362v-260h30.002c5.522 0 10-4.478 10-10s-4.478-10-10-10h-31.583c-4.229-13.041-16.487-22.499-30.919-22.499-17.921 0-32.5 14.579-32.5 32.5v447c0 17.92 14.579 32.499 32.5 32.499s32.5-14.579 32.5-32.499v-157h114.999v33.266c0 16.12 13.377 29.235 29.819 29.235h220.362c16.442 0 29.819-13.115 29.819-29.235 0-4.703-1.166-9.366-3.375-13.518zm-363.158 244.499c0 6.892-5.607 12.499-12.5 12.499s-12.5-5.607-12.5-12.499v-447c0-6.893 5.607-12.5 12.5-12.5s12.5 5.607 12.5 12.5zm183.896-157c-11.961 9.329-23.169 21.503-27.344 38.231-.979-1.436-1.553-3.137-1.553-4.966v-33.265zm201.284 42.501h-209.027c5.034-18.414 23.474-29.845 38.735-39.293 6.739-4.173 12.559-7.775 16.453-11.67.059-.059.108-.123.165-.183 5.357-5.288 8.674-12.566 8.674-20.591v-188.263h145c5.414 0 9.819 4.143 9.819 9.234 0 1.499-.367 2.924-1.093 4.235-.129.235-.249.475-.359.719l-50.476 111.693c-1.184 2.618-1.184 5.618 0 8.236l50.476 111.692c.109.244.229.482.359.717.725 1.313 1.093 2.739 1.093 4.237.001 5.094-4.405 9.237-9.819 9.237z"/><path d="m166.004 42.5c5.522 0 10-4.478 10-10s-4.478-10-10-10h-.008c-5.522 0-9.996 4.478-9.996 10s4.482 10 10.004 10z"/></g></g></svg>