<svg id="Layer_1" enable-background="new 0 0 512 512" height="512" viewBox="0 0 512 512" width="512" xmlns="http://www.w3.org/2000/svg"><g><g><path d="m502 445.998h-68.666v-234.383c2.618.72 5.359 1.111 8.177 1.111 16.812 0 30.489-13.678 30.489-30.489v-38.417c0-16.812-13.677-30.488-30.489-30.488h-38.417c-12.363 0-23.023 7.401-27.803 18.001h-215.289c-5.523 0-10 4.478-10 10s4.477 10 10 10h213.535c1.069 4.265 3.03 8.212 5.753 11.594l-78.632 78.631-34.172-34.172c-5.758-5.758-13.414-8.93-21.558-8.93s-15.799 3.172-21.557 8.93l-81.281 81.28h-102.089v-137.333h30.001c5.523 0 10-4.478 10-10s-4.477-10-10-10h-30.001v-95.333c0-5.522-4.477-10-10-10s-10 4.478-10 10v16.666h-10.001c-5.523 0-10 4.478-10 10s4.477 10 10 10h10.001v58.667h-10.001c-5.523 0-10 4.478-10 10s4.477 10 10 10h10.001v58.666h-10.001c-5.523 0-10 4.478-10 10s4.477 10 10 10h10.001v58.667h-10.001c-5.523 0-10 4.478-10 10s4.477 10 10 10h10.001v58.666h-10.001c-5.523 0-10 4.478-10 10s4.477 10 10 10h10.001v58.666h-10.001c-5.523 0-10 4.478-10 10s4.477 10 10 10h10.001v10.002c0 5.522 4.477 10 10 10s10-4.478 10-10v-10.002h58.667v.001 10.001c0 5.522 4.477 10 10 10s10-4.478 10-10v-10.001-.001h58.667v10.002c0 5.522 4.477 10 10 10s10-4.478 10-10v-10.002h58.667v.001 10.001c0 5.522 4.477 10 10 10s10-4.478 10-10v-10.001-.001h58.667v.001 10.001c0 5.522 4.477 10 10 10s10-4.478 10-10v-10.001-.001h58.667v10.002c0 5.522 4.477 10 10 10s10-4.478 10-10v-10.002h58.664v10.002c0 5.522 4.477 10 10 10s10-4.478 10-10v-20.002c0-5.522-4.477-10-10-10zm-264.486-224.47c1.98-1.981 4.614-3.072 7.415-3.072s5.435 1.091 7.416 3.072l41.243 41.243c3.905 3.904 10.237 3.904 14.143 0l93.458-93.458c2.285-2.285 3.325-5.532 2.792-8.72-.533-3.187-2.572-5.92-5.476-7.338-3.639-1.776-5.9-5.393-5.9-9.436 0-5.783 4.705-10.488 10.489-10.488h38.417c5.784 0 10.489 4.705 10.489 10.488v38.417c0 5.784-4.705 10.489-10.489 10.489-4.043 0-7.659-2.261-9.436-5.899-1.418-2.903-4.151-4.943-7.338-5.476-3.185-.531-6.434.508-8.72 2.792l-107.943 107.946c-4.09 4.09-10.743 4.088-14.831 0l-41.243-41.243c-3.905-3.904-10.237-3.904-14.143 0l-67.75 67.751c-4.088 4.09-10.742 4.089-14.831 0-1.98-1.98-3.071-4.613-3.071-7.415s1.091-5.435 3.071-7.415zm-197.513 224.47v-137.332h92.327c-.707 8.622 2.223 17.49 8.805 24.072 5.943 5.943 13.75 8.915 21.558 8.915 5.05 0 10.097-1.251 14.643-3.738v108.083zm157.333 0v-126.345l47.595-47.595 34.172 34.172c11.888 11.885 31.229 11.887 43.115 0l91.118-91.118v230.886z"/><path d="m115.006 151.333c5.523 0 10-4.478 10-10s-4.477-10-10-10h-.007c-5.523 0-9.997 4.478-9.997 10s4.481 10 10.004 10z"/></g></g></svg>