<svg id="Layer_1" enable-background="new 0 0 512.001 512.001" height="512" viewBox="0 0 512.001 512.001" width="512" xmlns="http://www.w3.org/2000/svg"><g><g><path d="m437.749 330.623c-10.971-8.94-26.885-8.615-36.232.731-.074.075-.148.151-.221.229l-54.22 57.777-23.912.811c8.551-10.04 9.398-21.457 6.775-29.613-.946-2.943-2.37-5.6-4.154-7.952 5.341-2.919 10.312-6.591 14.715-10.994 16.37-16.371 22.823-40.458 16.841-62.857-1.666-6.252-6.588-11.099-12.858-12.674-22.325-5.862-46.309.611-62.605 16.908-1.425 1.425-2.771 2.913-4.044 4.449v-30.938c57.266-13.58 99.999-65.14 99.999-126.5 0-71.683-58.317-130-130-130-17.608 0-34.691 3.464-50.775 10.295-5.083 2.159-7.454 8.03-5.295 13.113s8.03 7.455 13.113 5.295c13.596-5.774 28.049-8.703 42.956-8.703 60.654 0 110 49.346 110 110s-49.346 110-110 110-110-49.346-110-110c0-14.903 2.927-29.354 8.701-42.951 2.159-5.083-.213-10.954-5.296-13.113-5.082-2.156-10.955.213-13.113 5.297-6.829 16.083-10.292 33.164-10.292 50.768 0 61.36 42.733 112.92 100 126.5v40.939c-1.273-1.536-2.619-3.024-4.044-4.449-16.295-16.295-40.277-22.773-62.602-16.91-6.273 1.576-11.197 6.424-12.862 12.671-5.983 22.403.47 46.491 16.841 62.862 3.159 3.159 6.61 5.942 10.278 8.344-12.243 2.252-24.207 6.135-35.645 11.664-26.789 12.947-48.946 33.878-64.078 60.53-2.727 4.804-1.043 10.907 3.759 13.634s10.906 1.043 13.633-3.759c27.14-47.805 78.449-72.2 130.709-62.147.271.052.543.093.817.122 7.569.816 13.387.904 20.084.311 5.271-.469 16.7-4.06 34.914-9.879 10.803-3.452 27.13-8.67 30.596-9.009 5.468-.488 9.453 1.479 10.668 5.257 1.38 4.291-1.119 10.921-9.813 16.058-20.6 12.17-39.955 22.301-59.173 30.973-5.034 2.271-7.273 8.194-5.002 13.229 2.272 5.034 8.193 7.273 13.229 5.002 13.599-6.137 27.245-12.968 41.303-20.685l60.438-2.048c2.644-.09 5.144-1.223 6.953-3.151l56.902-60.636c2.075-1.958 6.506-1.635 9.379.706 4.425 3.605 2.032 9.409-.754 13.644l-35.985 54.682c-5.226 7.94-11.837 16.546-21.248 20.164-43.298 16.644-81.935 27.08-103.354 27.917l-87.878 3.433c-3.236.126-6.21 1.812-7.981 4.522l-17.014 26.041c-3.021 4.624-1.722 10.82 2.902 13.842 1.688 1.103 3.584 1.629 5.46 1.629 3.264 0 6.463-1.596 8.381-4.531l14.19-21.72 82.721-3.231c23.839-.931 63.841-11.586 109.748-29.233 14.783-5.683 24.215-17.862 30.779-27.838l35.985-54.682c11.837-17.992 5.61-32.871-3.319-40.146zm-99.418-45.466c3.589 15.17-.938 31.275-11.974 42.312-7.89 7.891-18.388 12.435-29.275 13.08l17.73-17.73c3.905-3.905 3.905-10.237 0-14.143-3.906-3.904-10.236-3.904-14.143 0l-17.732 17.732c.643-10.887 5.185-21.381 13.082-29.277 11.029-11.028 27.144-15.563 42.312-11.974zm-90.499-25.157c3.365 0 6.7-.129 10.001-.381v93.585c-7.024 2.232-14.879 4.688-20.001 6.078v-99.663c3.3.252 6.635.381 10 .381zm-90.499 35.157c15.166-3.586 31.284.945 42.312 11.975 7.895 7.895 12.437 18.387 13.08 29.275l-17.731-17.731c-3.905-3.904-10.237-3.904-14.143 0-3.905 3.905-3.905 10.237 0 14.143l17.731 17.731c-10.888-.645-21.386-5.189-29.276-13.08-11.035-11.035-15.562-27.14-11.973-42.313z"/><path d="m240.677 155.843c-3.905-3.904-10.237-3.904-14.143 0-3.905 3.905-3.905 10.237 0 14.143 3.259 3.259 7.159 5.495 11.297 6.711v3.303c0 5.522 4.477 10 10 10s10-4.478 10-10v-5.283c2.309-1.216 4.476-2.793 6.416-4.733 10.396-10.396 10.396-27.314 0-37.712l-18.689-18.688c-2.6-2.6-2.6-6.828 0-9.428 2.599-2.599 6.83-2.599 9.429 0 3.906 3.906 10.238 3.904 14.142 0 3.905-3.906 3.905-10.237 0-14.143-3.259-3.259-7.159-5.495-11.298-6.711v-3.302c0-5.522-4.477-10-10-10s-10 4.478-10 10v5.281c-2.309 1.216-4.476 2.793-6.416 4.732-5.037 5.037-7.811 11.733-7.811 18.856s2.774 13.819 7.811 18.856l18.688 18.688c2.6 2.6 2.6 6.83.001 9.429-2.599 2.6-6.828 2.6-9.427.001z"/><path d="m247.832 220c49.626 0 90-40.374 90-90 0-49.627-40.374-90.001-90-90.001s-90 40.374-90 90.001c0 49.626 40.374 90 90 90zm0-160.001c38.598 0 70 31.402 70 70.001 0 38.598-31.402 70-70 70s-70-31.402-70-70c0-38.599 31.402-70.001 70-70.001z"/><path d="m162.976 55.148c2.56 0 5.121-.977 7.074-2.93 3.905-3.905 3.905-10.237 0-14.143-3.905-3.904-10.236-3.904-14.142 0l-.005.005c-3.905 3.905-3.903 10.234.002 14.14 1.953 1.953 4.511 2.928 7.071 2.928z"/></g></g></svg>