<svg id="Layer_1" enable-background="new 0 0 512.001 512.001" height="512" viewBox="0 0 512.001 512.001" width="512" xmlns="http://www.w3.org/2000/svg"><g><g><path d="m455.511 40.001h-38.417c-11.457 0-21.454 6.356-26.663 15.723-35.502-35.647-83.42-55.724-134.431-55.724-34.135 0-67.624 9.17-96.848 26.519-4.749 2.819-6.313 8.954-3.494 13.703 2.817 4.749 8.954 6.316 13.703 3.494 26.138-15.515 56.097-23.716 86.639-23.716 52.152 0 100.694 23.458 133.176 64.354l3.139 3.957c.05.063.107.115.158.177.271.37.529.75.818 1.109l-27.931 27.931-17.372-17.371c-5.758-5.759-13.414-8.931-21.558-8.931s-15.8 3.172-21.558 8.93l-84.985 84.985-34.275-34.275c-5.758-5.758-13.414-8.929-21.557-8.929-8.144 0-15.8 3.171-21.558 8.929l-55.69 55.69c-.531-5.495-.807-11.025-.807-16.556 0-30.547 8.2-60.504 23.714-86.634 2.819-4.749 1.256-10.885-3.493-13.704-4.752-2.818-10.885-1.255-13.704 3.493-17.348 29.218-26.517 62.707-26.517 96.845 0 11.506 1.044 23.012 3.095 34.267l-34.165 34.166c-5.758 5.758-8.93 13.415-8.93 21.557 0 8.144 3.172 15.8 8.93 21.557 5.758 5.759 13.414 8.931 21.558 8.931 8.143 0 15.799-3.172 21.558-8.93l14.568-14.568c13.157 22.085 30.821 41.524 51.649 56.691 13.081 9.526 19.374 18.27 21.173 30.257-11.344 4.283-19.436 15.249-19.436 28.074 0 7.678 2.902 14.688 7.663 20-4.761 5.312-7.663 12.322-7.663 19.999 0 13.036 8.361 24.152 20 28.28v11.721c0 16.542 13.458 29.999 30 29.999h120.001c16.542 0 29.999-13.457 29.999-29.999v-11.721c11.639-4.128 20-15.243 20-28.279 0-7.678-2.902-14.688-7.663-20 4.761-5.312 7.663-12.322 7.663-20 0-12.825-8.091-23.791-19.435-28.074 1.8-11.987 8.093-20.731 21.173-30.257 23.718-17.272 43.397-40.126 56.91-66.091 13.969-26.84 21.352-57.125 21.352-87.58 0-19.302-2.889-38.287-8.576-56.538 5.126 3.784 11.396 5.934 18.087 5.934 16.812 0 30.489-13.678 30.489-30.489v-38.417c0-16.811-13.677-30.489-30.489-30.489zm-231.358 270.194c2.548-1.825 4.457-3.928 5.923-5.542 2.632-2.897 3.008-3.045 3.707-3.045s1.074.147 3.705 3.044c3.261 3.591 8.718 9.6 18.513 9.6s15.252-6.009 18.513-9.6c2.631-2.896 3.006-3.044 3.705-3.044s1.075.147 3.707 3.045c1.465 1.613 3.375 3.716 5.922 5.542l-21.052 61.807h-21.59zm111.847 81.807c5.514 0 10 4.486 10 10s-4.486 10-10 10h-160c-5.514 0-10-4.486-10-10s4.486-10 10-10zm-19.999 99.999h-120.001c-5.514 0-10-4.485-10-9.999v-10.001h140v10.001c0 5.514-4.485 9.999-9.999 9.999zm19.999-40h-160c-5.514 0-10-4.486-10-10s4.486-9.999 10-9.999h160c5.514 0 10 4.486 10 10s-4.486 9.999-10 9.999zm19.964-124.498c-17.812 12.972-26.96 26.667-29.329 44.499h-38.711l21.978-64.525c1.04-3.054.543-6.422-1.334-9.045-1.878-2.623-4.906-4.18-8.132-4.18-.699 0-1.074-.147-3.705-3.044-3.261-3.591-8.718-9.6-18.513-9.6-9.794 0-15.251 6.009-18.511 9.599-2.632 2.897-3.008 3.045-3.707 3.045s-1.075-.147-3.707-3.045c-3.26-3.59-8.717-9.599-18.511-9.599-9.795 0-15.252 6.009-18.512 9.599-2.632 2.897-3.008 3.045-3.707 3.045-3.226 0-6.254 1.557-8.132 4.18-1.877 2.623-2.374 5.991-1.334 9.045l21.979 64.525h-38.71c-2.37-17.832-11.517-31.527-29.33-44.499-20.025-14.583-36.784-33.57-48.78-55.167l56.798-56.798 34.274 34.275c5.758 5.758 13.414 8.929 21.558 8.929s15.8-3.171 21.558-8.929l84.985-84.985 17.372 17.372c11.889 11.886 31.229 11.886 43.115 0l33.916-33.916c3.43 13.573 5.168 27.547 5.168 41.716 0 54.165-26.181 105.568-70.036 137.503zm110.036-218.596c0 5.784-4.705 10.489-10.489 10.489-4.043 0-7.658-2.261-9.435-5.899-1.418-2.903-4.151-4.943-7.338-5.476-3.189-.533-6.436.508-8.72 2.792l-57.243 57.244c-4.09 4.088-10.743 4.088-14.831 0l-24.443-24.443c-3.906-3.904-10.236-3.904-14.143 0l-92.057 92.057c-1.98 1.98-4.613 3.071-7.415 3.071s-5.435-1.091-7.415-3.071l-41.346-41.347c-1.875-1.875-4.419-2.929-7.071-2.929s-5.195 1.054-7.071 2.929l-93.081 93.081c-1.98 1.981-4.614 3.072-7.415 3.072-2.802 0-5.435-1.091-7.416-3.072-1.98-1.98-3.071-4.614-3.071-7.415s1.091-5.435 3.072-7.415l107.568-107.567c2.044-2.045 4.729-3.066 7.415-3.066 2.685 0 5.37 1.021 7.414 3.066l41.347 41.347c3.906 3.904 10.236 3.904 14.143 0l92.057-92.058c1.98-1.98 4.614-3.071 7.415-3.071s5.435 1.091 7.415 3.072l24.443 24.443c3.906 3.904 10.236 3.904 14.143 0l42.758-42.758c2.284-2.285 3.324-5.533 2.792-8.72s-2.572-5.92-5.476-7.338c-3.64-1.776-5.9-5.393-5.9-9.436 0-5.784 4.705-10.489 10.489-10.489h38.417c5.784 0 10.489 4.705 10.489 10.489v38.418z"/><path d="m128.721 72.721c5.522 0 10-4.478 10-10s-4.478-10-10-10h-.007c-5.522 0-9.996 4.478-9.996 10s4.481 10 10.003 10z"/></g></g></svg>