<svg id="Layer_1" enable-background="new 0 0 512.002 512.002" height="512" viewBox="0 0 512.002 512.002" width="512" xmlns="http://www.w3.org/2000/svg"><g><g><path d="m497.806 108.908-10.041-.629c-2.637-9.672-6.489-18.971-11.478-27.705l6.664-7.556c5.274-5.977 5.202-14.862-.165-20.229l-23.578-23.576c-5.364-5.363-14.25-5.438-20.228-.167l-7.559 6.666c-8.719-4.978-18.019-8.829-27.709-11.476l-.629-10.038c-.505-8.094-6.7-14.198-14.409-14.198h-33.344c-7.709 0-13.904 6.104-14.41 14.195l-.629 10.039c-9.674 2.637-18.974 6.487-27.711 11.476l-7.555-6.662c-5.976-5.272-14.86-5.201-20.23.164l-23.575 23.575c-2.591 2.59-3.936 6-4.055 9.507-32.483.658-64.253 9.634-92.112 26.108-4.754 2.811-6.329 8.943-3.518 13.697 1.866 3.157 5.197 4.912 8.617 4.912 1.729 0 3.483-.45 5.08-1.395 25.875-15.3 55.533-23.387 85.769-23.387 1.906 0 3.826.034 5.748.099-3.496 6.369-6.4 13.036-8.682 19.937-38.642.743-74.86 16.132-102.265 43.537-25.119 25.119-40.278 58.032-43.086 93.231-7.03 2.124-13.855 4.863-20.423 8.17.648-28.915 8.664-57.178 23.32-81.966 2.812-4.754 1.236-10.887-3.518-13.697-4.756-2.813-10.887-1.235-13.697 3.518-15.287 25.854-24.117 55.075-25.837 85.109-5.466-2.137-11.746-1.115-15.932 3.069l-25.391 25.39c-5.492 5.492-5.556 14.599-.146 20.73l7.542 8.551c-5.55 9.624-9.813 19.916-12.703 30.666l-11.364.713c-8.304.52-14.567 6.861-14.567 14.749v35.905c0 7.888 6.263 14.229 14.567 14.75l11.364.713c2.872 10.721 7.138 21.018 12.701 30.666l-7.54 8.55c-5.41 6.133-5.347 15.239.146 20.731l25.391 25.389c5.492 5.49 14.599 5.556 20.731.147l8.553-7.542c9.621 5.547 19.916 9.812 30.67 12.703l.713 11.355c.511 8.187 6.989 14.599 14.75 14.599.254 0 .506-.01.755-.028h34.396c.25.019.503.028.758.028 7.761 0 14.239-6.412 14.75-14.595l.713-11.361c10.72-2.871 21.019-7.137 30.674-12.703l8.555 7.521c6.244 5.498 15.153 5.447 20.724-.124l25.396-25.391c4.172-4.175 5.201-10.435 3.083-15.892 46.342-2.609 89.547-21.89 122.632-54.975 34.743-34.742 54.268-80.642 55.245-129.618 3.478-.118 6.858-1.478 9.48-4.101l23.58-23.576c5.366-5.367 5.438-14.253.165-20.228l-6.664-7.556c4.975-8.713 8.826-18.008 11.478-27.706l10.038-.63c8.095-.506 14.198-6.7 14.198-14.409v-33.341c0-7.705-6.103-13.899-14.196-14.408zm-327.862 51.036c17.332-17.333 38.738-29.11 62.058-34.45v31.164c0 7.709 6.104 13.903 14.196 14.409l10.04.63c2.637 9.67 6.488 18.969 11.477 27.706l-6.663 7.556c-5.273 5.979-5.2 14.864.166 20.228l23.579 23.578c5.368 5.364 14.253 5.437 20.226.164l7.558-6.664c8.712 4.974 18.009 8.824 27.711 11.477l.629 10.039c.501 7.975 6.831 14.221 14.41 14.221.241 0 .48-.009.717-.025h30.467c-5.338 23.33-17.117 44.745-34.456 62.082-14.75 14.751-32.597 25.526-52.058 31.696v-29.718c0-7.888-6.262-14.229-14.566-14.75l-11.365-.713c-2.873-10.72-7.138-21.016-12.702-30.663l7.545-8.555c5.407-6.134 5.343-15.239-.148-20.729l-25.394-25.392c-5.492-5.487-14.598-5.552-20.729-.145l-8.554 7.543c-9.625-5.551-19.924-9.815-30.669-12.701l-.712-11.363c-.521-8.305-6.863-14.566-14.751-14.566h-29.704c6.171-19.464 16.947-37.313 31.692-52.059zm62.785 303.152-6.909-6.073c-5.642-4.989-13.772-5.745-20.228-1.883-9.063 5.42-18.824 9.463-29.003 12.015-7.414 1.853-12.743 8.431-13.033 16.046l-.55 8.772h-26.013l-.576-9.188c-.471-7.522-5.698-13.803-12.987-15.622-10.224-2.574-19.987-6.619-29.019-12.021-6.555-3.922-14.966-3.026-20.543 2.157l-6.587 5.808-18.411-18.409 6.081-6.896c4.992-5.641 5.749-13.771 1.885-20.229-5.418-9.058-9.462-18.817-12.016-29-1.853-7.412-8.432-12.74-16.047-13.03l-8.773-.551v-26.009l9.19-.576c7.522-.471 13.803-5.698 15.623-12.987 2.573-10.218 6.618-19.98 12.022-29.015 3.922-6.554 3.026-14.966-2.159-20.545l-5.806-6.583 18.41-18.41 6.899 6.085c5.644 4.992 13.774 5.746 20.23 1.882 9.055-5.417 18.815-9.46 29-12.015 7.415-1.853 12.744-8.433 13.033-16.048l.55-8.771h26.013l.576 9.194c.474 7.522 5.701 13.801 13.01 15.624 10.216 2.573 19.972 6.616 28.997 12.016 6.556 3.92 14.963 3.024 20.54-2.156l6.589-5.811 18.412 18.409-6.084 6.898c-4.993 5.641-5.75 13.771-1.884 20.23 5.418 9.058 9.462 18.815 12.016 28.997 1.854 7.413 8.432 12.741 16.047 13.03l8.774.55v26.009l-9.188.576c-7.522.471-13.804 5.697-15.624 12.986-2.574 10.221-6.619 19.983-12.022 29.016-3.921 6.553-3.027 14.962 2.155 20.541l5.811 6.587zm147.61-92.758c-30.986 30.987-71.898 48.437-115.564 49.389 3.306-6.56 6.049-13.39 8.183-20.438 35.208-2.804 68.114-17.96 93.242-43.09 27.41-27.41 42.8-63.637 43.537-102.288 6.886-2.276 13.555-5.181 19.937-8.685.066 1.935.099 3.864.099 5.774 0 45.08-17.555 87.461-49.434 119.338zm111.663-218.946-7.866.493c-7.296.458-13.388 5.528-15.153 12.599-2.372 9.421-6.101 18.42-11.085 26.751-3.801 6.354-2.935 14.509 2.088 19.92l4.943 5.604-16.14 16.138-5.908-5.194c-5.473-4.845-13.361-5.578-19.626-1.828-8.353 4.994-17.351 8.722-26.739 11.076-7.187 1.798-12.354 8.175-12.639 15.557l-.469 7.468h-22.813l-.493-7.864c-.458-7.297-5.529-13.388-12.599-15.152-9.425-2.373-18.426-6.103-26.756-11.085-6.351-3.798-14.507-2.935-19.918 2.086l-5.608 4.945-16.146-16.146 5.202-5.897c4.845-5.473 5.578-13.361 1.828-19.625-4.996-8.353-8.724-17.351-11.077-26.734-1.796-7.188-8.173-12.356-15.556-12.641l-7.471-.469v-22.809l7.865-.493c7.295-.458 13.387-5.527 15.153-12.598 2.373-9.424 6.103-18.424 11.087-26.755 3.799-6.354 2.933-14.506-2.088-19.916l-4.944-5.605 16.147-16.146 5.902 5.204c5.475 4.844 13.362 5.576 19.624 1.826 8.351-4.994 17.349-8.721 26.739-11.076 7.187-1.798 12.354-8.175 12.639-15.557l.471-7.469h22.813l.493 7.866c.458 7.29 5.521 13.378 12.602 15.154 9.42 2.369 18.42 6.098 26.75 11.08 6.357 3.802 14.511 2.934 19.92-2.087l5.608-4.944 16.147 16.146-5.205 5.901c-4.843 5.472-5.577 13.359-1.826 19.627 4.995 8.35 8.724 17.346 11.078 26.731 1.796 7.187 8.173 12.354 15.557 12.64l7.47.469v22.809z"/><path d="m372.002 80c-33.084 0-60 26.916-60 60s26.916 60 60 60 60-26.916 60-60-26.916-60-60-60zm0 100c-22.056 0-40-17.944-40-40s17.944-40 40-40 40 17.944 40 40-17.944 40-40 40z"/><path d="m150 298.155c-35.205 0-63.846 28.641-63.846 63.846s28.641 63.847 63.846 63.847 63.847-28.642 63.847-63.847-28.642-63.846-63.847-63.846zm0 107.692c-24.177 0-43.846-19.67-43.846-43.847s19.669-43.846 43.846-43.846 43.847 19.669 43.847 43.846-19.67 43.847-43.847 43.847z"/><path d="m134.592 134.591c5.522 0 10-4.478 10-10s-4.478-10-10-10h-.008c-5.522 0-9.996 4.478-9.996 10s4.481 10 10.004 10z"/></g></g></svg>