<svg id="Layer_1" enable-background="new 0 0 512.002 512.002" height="512" viewBox="0 0 512.002 512.002" width="512" xmlns="http://www.w3.org/2000/svg"><g><g><path d="m126.001 200c55.14 0 100-44.859 100-100s-44.86-100-100-100-100 44.859-100 100 44.86 100 100 100zm0-180c44.112 0 80 35.888 80 80s-35.888 80-80 80-80-35.888-80-80 35.888-80 80-80z"/><path d="m123.561 127.797c-1.781-.001-3.455-.694-4.714-1.953-3.904-3.905-10.236-3.905-14.143-.001-3.905 3.904-3.906 10.236-.001 14.142 3.201 3.202 7.073 5.484 11.298 6.727v3.288c0 5.522 4.477 10 10 10s10-4.478 10-10v-5.272c2.334-1.234 4.496-2.822 6.416-4.742 5.037-5.037 7.811-11.733 7.811-18.856s-2.774-13.819-7.811-18.856l-18.688-18.688c-1.259-1.259-1.953-2.934-1.953-4.714s.693-3.455 1.953-4.714c1.259-1.26 2.933-1.953 4.714-1.953s3.455.693 4.714 1.953c3.905 3.904 10.237 3.904 14.143 0 3.905-3.905 3.905-10.237 0-14.143-3.259-3.259-7.159-5.495-11.297-6.711v-3.304c0-5.522-4.477-10-10-10s-10 4.478-10 10v5.282c-2.309 1.216-4.476 2.793-6.416 4.732-10.397 10.397-10.397 27.315 0 37.713l18.688 18.688c2.6 2.6 2.6 6.828 0 9.428-1.26 1.261-2.934 1.954-4.714 1.954z"/><path d="m226.002 292.002-.001-30c0-11.028-8.972-20-20-20h-160c-11.028 0-20 8.972-20 20v30c0 11.028 8.972 20 20 20v30c-11.028 0-20 8.972-20 20v30c0 11.028 8.972 20 20 20v30c-11.028 0-20 8.972-20 20v30c0 11.028 8.972 20 20 20h160c11.028 0 20-8.972 20-20v-30h.001c11.028 0 20-8.972 20-20v-30c0-11.028-8.972-20-20-20h-.001v-30h.001c11.028 0 20-8.972 20-20v-30c-.001-11.028-8.972-20-20-20zm-180.001 0v-30h160v30h-159.99zm160 200h-159.99-.01v-30h160zm20-80v30h-20.001-140l-.002-30h.002 140zm-20-20h-159.99-.01v-30h160zm0-50h-140l-.002-30h.002 140 20v30z"/><path d="m466.001 392.002h-34.997c-5.523 0-10 4.478-10 10s4.477 10 10 10h34.997v30h-20-140v-30h35.004c5.523 0 10-4.478 10-10s-4.477-10-10-10h-35.005c-11.028 0-20 8.972-20 20v30c-11.028 0-20 8.972-20 20v30c0 11.028 8.972 20 20 20h160c11.028 0 20-8.972 20-20v-30c11.028 0 20-8.972 20-20v-30c.001-11.028-8.971-20-19.999-20zm-20.001 100h-159.99-.01v-30h160z"/><path d="m348.499 317.496c0 16.542 13.458 30 30 30h37.501c11.322 0 21.497-6.447 26.732-16.377 2.192-4.159 3.268-8.934 3.268-13.623v-37.501c0-16.542-13.458-30-30-30-6.945 0-13.447 2.33-18.632 6.444l-103.657-103.655c-11.698-11.697-30.729-11.697-42.423 0-5.666 5.665-8.787 13.198-8.787 21.211 0 8.014 3.121 15.547 8.786 21.212l103.656 103.656c-4.113 5.186-6.444 11.689-6.444 18.633zm-83.069-136.432c-1.888-1.888-2.928-4.398-2.928-7.069 0-2.67 1.04-5.181 2.928-7.068 1.949-1.949 4.509-2.924 7.069-2.924s5.121.975 7.069 2.924l111.377 111.377c2.285 2.284 5.532 3.324 8.72 2.792 3.187-.532 5.92-2.572 7.338-5.476 1.694-3.47 5.141-5.625 8.996-5.625 5.514 0 10 4.486 10 10v37.501c0 5.433-4.568 10-10 10h-37.5c-5.514 0-10-4.486-10-10 0-3.854 2.156-7.302 5.625-8.997 2.903-1.417 4.943-4.15 5.475-7.337.533-3.188-.507-6.435-2.792-8.72z"/><path d="m376.001 402.002c0 5.522 4.477 10 10 10h.007c5.523 0 9.996-4.478 9.996-10s-4.48-10-10.003-10-10 4.477-10 10z"/></g></g></svg>