<svg id="Layer_1" enable-background="new 0 0 512.001 512.001" height="512" viewBox="0 0 512.001 512.001" width="512" xmlns="http://www.w3.org/2000/svg"><g><g><path d="m444.636 67.365c-43.441-43.441-101.199-67.365-162.634-67.365-69.797 0-135.026 31.177-178.959 85.536-3.472 4.296-2.804 10.592 1.492 14.063 4.296 3.473 10.593 2.804 14.063-1.491 14.355-17.762 31.21-32.796 49.844-44.802l104.901 181.693c.877 1.521 2.14 2.782 3.66 3.66l181.604 104.849c-37.411 58.005-102.596 96.49-176.604 96.49-5.317 0-10.674-.217-16-.623v-183.375c0-5.522-4.477-10-10-10h-183.369c-.407-5.33-.631-10.684-.631-16.001 0-18.949 2.534-37.753 7.531-55.889 1.467-5.324-1.66-10.83-6.984-12.297-5.323-1.468-10.83 1.659-12.297 6.984-5.475 19.865-8.25 40.456-8.25 61.201 0 5.317.21 10.667.582 16.001h-42.585c-5.523 0-10 4.478-10 10 0 68.381 26.629 132.668 74.981 181.021 48.353 48.352 112.64 74.98 181.021 74.98 5.523 0 10-4.478 10-10v-42.58c5.331.371 10.684.579 16 .579 61.435 0 119.193-23.924 162.634-67.365s67.365-101.199 67.365-162.635c0-61.434-23.923-119.192-67.365-162.634zm-198.635 424.427c-122.191-5.122-220.67-103.6-225.792-225.792h225.792zm-60.255-448.512c29.343-15.144 62.203-23.28 96.256-23.28 112.441 0 204.518 88.831 209.756 199.999h-203.983zm133.576 196.719h172.436c-1.458 30.944-9.643 60.156-23.126 86.204z"/><path d="m86.239 139.516c5.523 0 10-4.478 10-10s-4.477-10-10-10h-.007c-5.523 0-9.996 4.478-9.996 10s4.48 10 10.003 10z"/></g></g></svg>