<svg id="Layer_1" enable-background="new 0 0 512 512" height="512" viewBox="0 0 512 512" width="512" xmlns="http://www.w3.org/2000/svg"><g><g><path d="m413.442 346.469c3.823-7.143 5.998-15.294 5.998-23.946v-24.483c0-10.976.15-16.149 1.583-19.626 1.459-3.539 5.021-7.318 12.8-15.098l17.313-17.312c19.853-19.854 19.852-52.157 0-72.009l-17.312-17.313c-7.762-7.761-11.314-11.525-12.759-14.996-1.471-3.534-1.625-8.726-1.625-19.728v-24.481c0-28.076-22.842-50.917-50.917-50.917h-24.483c-10.976 0-16.149-.149-19.626-1.583-3.539-1.459-7.318-5.021-15.098-12.801l-17.312-17.312c-9.585-9.585-22.371-14.864-36.004-14.864-13.632 0-26.419 5.279-36.004 14.864l-17.313 17.312c-7.761 7.762-11.525 11.314-14.997 12.759-3.534 1.472-8.725 1.625-19.727 1.625h-24.483c-28.076 0-50.917 22.841-50.917 50.917 0 5.522 4.477 10 10 10s10-4.478 10-10c0-17.048 13.87-30.917 30.917-30.917h24.483c26.484 0 30.138-1.514 48.866-20.241l17.313-17.312c5.808-5.809 13.572-9.007 21.862-9.007 8.291 0 16.054 3.198 21.862 9.007l17.312 17.312c18.728 18.728 22.381 20.241 48.866 20.241h24.483c17.047 0 30.917 13.869 30.917 30.917v24.483c0 26.485 1.513 30.139 20.241 48.866l17.313 17.313c12.054 12.054 12.054 31.669 0 43.724l-17.313 17.312c-18.727 18.728-20.24 22.381-20.241 48.866v24.483c0 17.048-13.87 30.917-30.917 30.917h-24.483c-26.484 0-30.138 1.514-48.866 20.241l-17.313 17.312c-12.054 12.055-31.669 12.055-43.724 0l-17.313-17.313c-18.728-18.727-22.381-20.24-48.866-20.24h-24.483c-17.047 0-30.917-13.87-30.917-30.918v-24.483c0-26.485-1.513-30.139-20.241-48.866l-17.313-17.313c-12.054-12.054-12.054-31.669 0-43.724 3.905-3.906 3.905-10.237 0-14.143-3.905-3.904-10.237-3.904-14.142 0-19.853 19.854-19.852 52.157 0 72.009l17.312 17.313c7.762 7.761 11.314 11.525 12.759 14.996 1.471 3.534 1.625 8.726 1.625 19.728v24.482c0 8.652 2.176 16.804 5.999 23.947l-49.835 86.315c-4.004 6.928-3.596 15.325 1.064 21.917 4.639 6.562 12.413 9.723 20.285 8.258l45.878-8.522 15.213 43.018c2.293 7.722 8.907 13.346 16.961 14.379.875.112 1.747.167 2.612.167 7.197 0 13.906-3.81 17.575-10.165l54.388-94.203c9.53 8.254 21.409 12.395 33.3 12.394 11.888-.001 23.771-4.142 33.3-12.395l54.388 94.204c3.67 6.356 10.377 10.165 17.575 10.165.865 0 1.737-.055 2.612-.167 8.055-1.033 14.669-6.658 16.962-14.38l15.212-43.017 45.873 8.521c7.875 1.461 15.65-1.696 20.29-8.257 4.661-6.592 5.069-14.989 1.067-21.912zm-262.451 145.366c-.058.101-.102.149-.097.149-.128.051-.436-.016-.507-.094-.006-.008-.03-.052-.054-.141-.063-.23-.135-.458-.214-.683l-18.163-51.358c-1.641-4.641-6.413-7.401-11.254-6.498l-54.288 10.085c-.088.017-.139.017-.131.021-.119-.054-.288-.32-.241-.527l46.231-80.074c8.626 6.713 19.452 10.726 31.204 10.726h24.483c10.976 0 16.149.149 19.626 1.583 3.539 1.459 7.318 5.021 15.098 12.8l5.3 5.3zm294.746-48.524c-.012 0-.063.003-.156-.016l-54.282-10.084c-4.839-.896-9.613 1.857-11.254 6.498l-18.163 51.358c-.08.225-.151.452-.214.683-.024.089-.048.133-.054.141-.072.08-.382.146-.49.104-.012-.011-.056-.06-.115-.16l-56.991-98.712 5.299-5.298c7.761-7.762 11.525-11.314 14.997-12.759 3.534-1.472 8.725-1.625 19.727-1.625h24.483c11.752 0 22.578-4.013 31.204-10.725l46.272 80.154c.006.126-.163.393-.263.441z"/><path d="m335.048 159.363c0-15.666-12.747-28.411-28.413-28.411h-11.016c-2.25 0-6.016-.001-6.737-.298-.743-.306-3.512-3.076-5.001-4.565l-7.79-7.789c-5.353-5.353-12.488-8.3-20.091-8.3s-14.739 2.947-20.091 8.3l-7.79 7.79c-1.59 1.591-4.253 4.253-4.972 4.553-.742.309-4.66.309-6.764.309h-11.019c-15.667.002-28.412 12.748-28.412 28.413v11.018c0 2.249 0 6.015-.297 6.735-.306.743-3.076 3.513-4.564 5.001l-7.79 7.791c-5.353 5.352-8.3 12.486-8.3 20.091 0 7.604 2.948 14.738 8.3 20.091l7.791 7.791c1.59 1.591 4.252 4.252 4.552 4.972.309.742.309 4.66.309 6.765v11.017c0 15.667 12.747 28.413 28.413 28.413h11.017c2.25 0 6.015 0 6.735.297.743.307 3.513 3.076 5.002 4.566l7.79 7.789c5.54 5.539 12.814 8.309 20.091 8.309 7.275-.001 14.553-2.771 20.092-8.309l7.79-7.79c1.591-1.591 4.253-4.254 4.973-4.554.742-.309 4.659-.309 6.763-.309h11.018c15.667 0 28.413-12.746 28.413-28.413v-11.017c0-2.249 0-6.015.297-6.735.306-.743 3.076-3.513 4.564-5.001l7.791-7.791c5.352-5.353 8.3-12.487 8.3-20.091s-2.948-14.738-8.3-20.091l-7.791-7.791c-1.591-1.591-4.253-4.253-4.553-4.973-.309-.741-.309-4.659-.309-6.764v-11.019c-.001.001-.001.001-.001 0zm-1.491 56.587-7.789 7.789c-9.417 9.416-10.719 12.561-10.72 25.879v11.017c0 4.639-3.774 8.413-8.413 8.413h-11.018c-13.317 0-16.461 1.303-25.879 10.72l-7.79 7.79c-3.281 3.281-8.619 3.279-11.898 0l-7.79-7.789c-9.417-9.418-12.561-10.721-25.879-10.721h-11.017c-4.639 0-8.413-3.774-8.413-8.413v-11.017c0-13.318-1.302-16.463-10.719-25.879l-7.791-7.791c-1.573-1.574-2.441-3.687-2.441-5.948 0-2.262.867-4.374 2.443-5.95l7.789-7.789c9.417-9.416 10.719-12.561 10.72-25.879v-11.018c0-4.639 3.774-8.412 8.413-8.413h11.018c13.318 0 16.462-1.303 25.879-10.719l7.79-7.79c1.575-1.575 3.687-2.442 5.949-2.442s4.374.867 5.949 2.442l7.79 7.789c9.416 9.417 12.56 10.72 25.879 10.721h11.017c4.639 0 8.413 3.774 8.413 8.413v11.017c0 13.317 1.302 16.461 10.719 25.879l7.791 7.791c3.279 3.28 3.279 8.616-.002 11.898z"/><path d="m100.195 155.461c5.523 0 10-4.478 10-10s-4.477-10-10-10h-.008c-5.523 0-9.996 4.478-9.996 10s4.481 10 10.004 10z"/></g></g></svg>