<svg id="Layer_1" enable-background="new 0 0 512 512" height="512" viewBox="0 0 512 512" width="512" xmlns="http://www.w3.org/2000/svg"><g><g><path d="m91 150.003h240c16.542 0 30-13.458 30-30v-50.002c0-16.542-13.458-29.999-30-29.999h-130c-5.523 0-10 4.478-10 10s4.477 10 10 10h130c5.514 0 10 4.485 10 9.999v50.002c0 5.514-4.486 10-10 10h-240c-5.514 0-10-4.486-10-10v-50.002c0-5.514 4.486-9.999 10-9.999h20c5.523 0 10-4.478 10-10s-4.477-10-10-10h-20c-16.542 0-30 13.457-30 29.999v50.002c0 16.542 13.458 30 30 30z"/><path d="m170.999 171.993h-79.999c-16.542 0-30 13.458-30 30v80.002c0 16.542 13.458 30 30 30h80c16.542 0 30-13.458 30-30v-80.002c-.001-16.542-13.459-30-30.001-30zm10 110.002c0 5.514-4.486 10-10 10h-79.999c-5.514 0-10-4.486-10-10v-80.002c0-5.514 4.486-10 10-10h80c5.514 0 10 4.486 10 10v80.002z"/><path d="m170.999 331.996h-79.999c-16.542 0-30 13.458-30 30v80.003c0 16.542 13.458 29.999 30 29.999h80c16.542 0 30-13.457 30-29.999v-80.003c-.001-16.542-13.459-30-30.001-30zm10 110.003c0 5.514-4.486 9.999-10 9.999h-79.999c-5.514 0-10-4.485-10-9.999v-80.003c0-5.514 4.486-10 10-10h80c5.514 0 10 4.486 10 10v80.003z"/><path d="m401 292.498v-242.498c0-27.57-22.43-50-50-50h-280c-27.57 0-50 22.43-50 50v412c0 27.57 22.43 50 50 50h280c15.676 0 30.512-7.558 39.914-20.002.029 0 .057.001.086.001 55.14 0 100-44.859 100-100 0-51.766-39.538-94.468-90-99.501zm-50 199.502h-280c-16.542 0-30-13.458-30-30v-412c0-16.542 13.458-30 30-30h280c16.542 0 30 13.458 30 30v242.498c-8.637.862-16.953 2.829-24.806 5.754 3.036-4.688 4.806-10.268 4.806-16.256v-80.002c0-16.542-13.458-30-30-30h-80c-16.542 0-30 13.458-30 30v80.002c0 16.542 13.458 30 30 30h80c.025 0 .049-.002.073-.002-7.578 5.69-14.323 12.431-20.021 20.003h-60.052c-16.542 0-30 13.458-30 30v80.003c0 16.542 13.458 29.999 30 29.999h80c.021 0 .04-.003.061-.003 9.99 7.504 21.428 13.178 33.809 16.533-4.235 2.231-8.984 3.471-13.87 3.471zm-20-200.005h-80c-5.514 0-10-4.486-10-10v-80.002c0-5.514 4.486-10 10-10h80c5.514 0 10 4.486 10 10v80.002c0 5.514-4.486 10-10 10zm-31.64 60.001c-5.371 12.257-8.36 25.787-8.36 40.003 0 22.494 7.467 43.274 20.05 59.999h-60.05c-5.514 0-10-4.485-10-9.999v-80.003c0-5.514 4.486-10 10-10zm91.64 120.003c-44.112 0-80-35.888-80-80s35.888-80 80-80 80 35.888 80 80-35.888 80-80 80z"/><path d="m393.441 364.203c1.781 0 3.455.693 4.714 1.953 3.905 3.904 10.237 3.904 14.143 0 3.905-3.905 3.905-10.237 0-14.143-3.201-3.2-7.073-5.483-11.297-6.725v-3.29c0-5.522-4.477-10-10-10s-10 4.478-10 10v5.273c-2.334 1.234-4.496 2.823-6.415 4.742-5.037 5.037-7.811 11.733-7.811 18.856s2.774 13.819 7.811 18.856l18.688 18.688c1.259 1.259 1.953 2.934 1.953 4.714s-.693 3.455-1.953 4.714c-1.259 1.26-2.933 1.953-4.714 1.953s-3.455-.693-4.714-1.953c-3.905-3.904-10.237-3.904-14.143 0-3.905 3.905-3.905 10.237 0 14.143 3.201 3.2 7.073 5.483 11.298 6.725v3.29c0 5.522 4.477 10 10 10s10-4.478 10-10v-5.273c2.333-1.234 4.495-2.822 6.415-4.742 5.037-5.037 7.811-11.733 7.811-18.856s-2.774-13.819-7.811-18.856l-18.688-18.688c-1.259-1.259-1.953-2.934-1.953-4.714s.693-3.455 1.953-4.714c1.258-1.26 2.932-1.953 4.713-1.953z"/><path d="m151 231.994h-10v-10c0-5.522-4.477-10-10-10s-10 4.478-10 10v10h-10c-5.523 0-10 4.478-10 10s4.477 10 10 10h10v10c0 5.522 4.477 10 10 10s10-4.478 10-10v-10h10c5.523 0 10-4.478 10-10s-4.478-10-10-10z"/><path d="m311 231.994h-40c-5.523 0-10 4.478-10 10s4.477 10 10 10h40c5.523 0 10-4.478 10-10s-4.477-10-10-10z"/><path d="m152.213 380.784c-3.905-3.904-10.237-3.904-14.143 0l-7.07 7.071-7.071-7.071c-3.905-3.904-10.237-3.904-14.143 0-3.905 3.905-3.905 10.237 0 14.143l7.071 7.071-7.071 7.071c-3.905 3.905-3.905 10.237 0 14.143 1.953 1.952 4.512 2.929 7.071 2.929s5.119-.977 7.071-2.929l7.072-7.072 7.071 7.071c1.953 1.952 4.512 2.929 7.071 2.929s5.119-.977 7.071-2.929c3.905-3.905 3.905-10.237 0-14.143l-7.071-7.071 7.071-7.071c3.905-3.905 3.905-10.237 0-14.142z"/><path d="m156.004 60.002c5.523 0 10-4.478 10-10s-4.477-10-10-10h-.008c-5.523 0-9.996 4.478-9.996 10s4.481 10 10.004 10z"/></g></g></svg>