<svg id="Layer_1" enable-background="new 0 0 512.002 512.002" height="512" viewBox="0 0 512.002 512.002" width="512" xmlns="http://www.w3.org/2000/svg"><g><g><path d="m451.96 33.073c-21.421-21.339-49.379-33.073-78.703-33.073-.276.001-.559.001-.839 0-13.072 0-25.938 2.334-38.246 6.938-5.173 1.935-7.798 7.697-5.863 12.869s7.692 7.799 12.869 5.863c10.061-3.763 20.568-5.67 31.315-5.67h.687c24.068 0 47.022 9.667 64.665 27.242 17.894 17.825 28.156 42.167 28.156 66.782 0 27.413-14.769 62.929-40.52 97.442-24.111 32.316-46.771 48.534-52.682 48.534s-28.572-16.218-52.683-48.533c-25.752-34.513-40.521-70.029-40.521-97.442 0-10.797 1.902-21.465 5.655-31.709 1.899-5.186-.764-10.93-5.95-12.829-5.183-1.9-10.929.765-12.829 5.95-4.563 12.454-6.876 25.437-6.876 38.588 0 31.632 16.216 71.508 44.49 109.402 19.473 26.097 49.152 56.573 68.714 56.573 19.561 0 49.24-30.476 68.712-56.573 28.274-37.895 44.49-77.771 44.49-109.402 0-29.895-12.407-59.401-34.041-80.952z"/><path d="m372.798 184.024c38.599 0 70.001-31.402 70.001-70s-31.402-70-70.001-70-70 31.402-70 70 31.401 70 70 70zm0-120c27.57 0 50.001 22.43 50.001 50s-22.431 50-50.001 50-50-22.43-50-50 22.429-50 50-50z"/><path d="m139.663 232.002c-.278.001-.562.001-.842 0-29.397 0-57.359 11.736-78.779 33.074-21.633 21.551-34.041 51.056-34.041 80.95 0 31.632 16.216 71.508 44.491 109.402 19.472 26.098 49.152 56.573 68.712 56.573s49.24-30.476 68.712-56.573c28.274-37.895 44.491-77.771 44.491-109.402 0-29.895-12.407-59.399-34.041-80.95-21.42-21.34-49.379-33.074-78.703-33.074zm52.224 211.467c-24.111 32.315-46.771 48.533-52.683 48.533s-28.571-16.218-52.683-48.533c-25.751-34.514-40.521-70.029-40.521-97.442 0-24.615 10.262-48.956 28.156-66.781 17.644-17.577 40.596-27.243 64.742-27.243.229.001.458.001.687 0 24.069 0 47.023 9.667 64.666 27.243 17.894 17.825 28.156 42.166 28.156 66.781 0 27.412-14.769 62.928-40.52 97.442z"/><path d="m139.204 276.026c-38.598 0-70 31.402-70 70s31.402 70 70 70 70-31.402 70-70-31.402-70-70-70zm0 120c-27.57 0-50-22.43-50-50s22.43-50 50-50 50 22.43 50 50-22.429 50-50 50z"/><path d="m372.798 300.002c-5.522 0-10 4.478-10 10v86.024h-72.182l9.445-9.445c3.905-3.905 3.905-10.237 0-14.143-3.906-3.904-10.236-3.904-14.143 0l-26.517 26.517c-3.905 3.905-3.905 10.237 0 14.143l26.517 26.517c1.953 1.952 4.512 2.929 7.071 2.929s5.118-.977 7.071-2.929c3.905-3.905 3.905-10.237 0-14.143l-9.445-9.445h82.182c5.522 0 10-4.478 10-10v-96.024c.001-5.524-4.477-10.001-9.999-10.001z"/><path d="m139.204 212.001c5.523 0 10-4.478 10-10v-79.568h67.84l-11.038 11.038c-3.905 3.905-3.905 10.237 0 14.143 1.953 1.952 4.512 2.929 7.071 2.929s5.119-.977 7.071-2.929l26.517-26.518c3.905-3.905 3.905-10.237 0-14.143l-26.517-26.517c-3.905-3.904-10.237-3.904-14.143 0-3.905 3.905-3.905 10.237 0 14.143l7.854 7.854h-74.655c-5.523 0-10 4.478-10 10v89.568c0 5.522 4.477 10 10 10z"/><path d="m299.978 50.878c5.522 0 10-4.478 10-10s-4.478-10-10-10h-.007c-5.522 0-9.996 4.478-9.996 10s4.481 10 10.003 10z"/></g></g></svg>