<svg id="Layer_1" enable-background="new 0 0 512.019 512.019" height="512" viewBox="0 0 512.019 512.019" width="512" xmlns="http://www.w3.org/2000/svg"><g><g><path d="m490.692 102.605c6.903-5.594 11.326-14.134 11.326-23.691v-38.416c0-16.812-13.678-30.489-30.489-30.489h-38.417c-9.558 0-18.098 4.424-23.693 11.328-26.957-13.965-56.963-21.329-87.4-21.329-104.767 0-190 85.233-190 190 0 37.94 11.185 73.314 30.421 103.011l-150.744 150.743c-15.596 15.597-15.595 40.974.001 56.568 7.531 7.531 17.576 11.679 28.284 11.68 10.708 0 20.753-4.148 28.284-11.68l150.743-150.742c29.697 19.235 65.07 30.42 103.01 30.42 104.767 0 190-85.233 190-190 .001-30.438-7.363-60.447-21.326-87.403zm-57.58-72.597h38.417c5.784 0 10.489 4.705 10.489 10.489v38.417c0 5.784-4.705 10.489-10.489 10.489-4.043 0-7.658-2.261-9.435-5.898-1.417-2.904-4.15-4.943-7.338-5.477-3.182-.531-6.435.507-8.72 2.792l-88.745 88.744c-4.088 4.09-10.742 4.088-14.83 0l-24.442-24.443c-1.875-1.875-4.419-2.929-7.071-2.929s-5.195 1.054-7.071 2.929l-99.713 99.713c-3.246-6.949-5.897-14.229-7.883-21.777l107.252-107.252c4.088-4.09 10.742-4.088 14.83 0l24.443 24.443c3.906 3.904 10.236 3.904 14.143 0l74.258-74.258c2.284-2.285 3.324-5.533 2.792-8.72s-2.572-5.92-5.476-7.338c-3.64-1.776-5.9-5.393-5.9-9.436 0-5.783 4.705-10.488 10.489-10.488zm-.177 92.2c12.511 20.399 19.084 43.622 19.084 67.8 0 71.683-58.317 130-130 130-44.701 0-84.202-22.68-107.608-57.135l96.538-96.538 17.372 17.372c11.888 11.889 31.229 11.885 43.114 0zm-378.812 363.981c-7.796 7.796-20.484 7.799-28.284-.001-7.798-7.798-7.798-20.486 0-28.284l119.402-119.401 28.284 28.284zm133.545-133.545-28.284-28.284 14.955-14.955c8.414 10.387 17.897 19.87 28.284 28.284zm134.351 7.364c-93.738 0-170-76.262-170-170s76.262-170 170-170c28.14 0 55.875 7.019 80.608 20.336 0 .051-.004.102-.004.153 0 7.134 2.42 13.809 6.686 19.106l-4.998 4.998c-24.491-16.111-52.777-24.593-82.292-24.593-23.284 0-45.614 5.201-66.371 15.46-4.951 2.447-6.981 8.444-4.534 13.396s8.443 6.983 13.396 4.534c17.978-8.885 37.326-13.39 57.51-13.39 24.179 0 47.405 6.572 67.803 19.083l-39.943 39.943-17.373-17.372c-11.887-11.887-31.228-11.883-43.114 0l-97.073 97.073c-.192-2.885-.3-5.794-.3-8.727 0-20.185 4.504-39.531 13.386-57.503 2.447-4.951.417-10.948-4.534-13.396-4.953-2.448-10.948-.417-13.396 4.534-10.256 20.752-15.456 43.08-15.456 66.364 0 82.71 67.29 150 150 150s150-67.29 150-150c0-29.514-8.483-57.799-24.593-82.291l4.998-4.998c5.297 4.266 11.971 6.685 19.105 6.685.053 0 .104-.004.157-.004 13.316 24.728 20.332 52.468 20.332 80.608 0 93.74-76.262 170.001-170 170.001z"/><path d="m223.026 101.015c2.258 0 4.53-.761 6.399-2.318 4.243-3.536 4.816-9.842 1.281-14.084-3.537-4.245-9.843-4.816-14.084-1.281l-.006.005c-4.243 3.536-4.813 9.839-1.278 14.082 1.978 2.373 4.823 3.596 7.688 3.596z"/></g></g></svg>