<svg id="Layer_1" enable-background="new 0 0 512.002 512.002" height="512" viewBox="0 0 512.002 512.002" width="512" xmlns="http://www.w3.org/2000/svg"><g><g><path d="m493.502 206.07-23.026-1.444c-.127-.008-.255-.014-.382-.017-.979-.024-2.189-.67-2.532-2.04-5.148-20.524-13.291-40.177-24.201-58.414-.586-.978-.463-2.261.308-3.132l15.594-17.679c6.984-7.918 7.013-19.124.067-26.065l-44.616-44.613c-6.942-6.943-18.149-6.915-26.064.067l-17.319 15.273c-.101.088-.198.179-.295.271-.703.673-2.006 1.07-3.201.354-18.185-10.877-37.837-19.018-58.412-24.195-.006-.002-.011-.003-.017-.005-1.134-.283-1.945-1.261-2.019-2.432l-1.473-23.501c-.663-10.546-8.557-18.498-18.363-18.498h-63.098c-9.807 0-17.7 7.953-18.362 18.499l-1.444 23.022c-.008.127-.014.255-.017.382-.023.979-.671 2.188-2.041 2.53-20.528 5.148-40.184 13.289-58.423 24.198-.979.585-2.263.462-3.134-.309l-17.678-15.59c-7.916-6.98-19.12-7.011-26.065-.067l-44.615 44.613c-6.945 6.943-6.916 18.149.067 26.066l15.273 17.314c.088.101.179.198.271.295.672.703 1.069 2.004.354 3.199-10.88 18.188-19.023 37.838-24.207 58.426-.278 1.115-1.28 1.945-2.435 2.018l-23.497 1.474c-10.546.662-18.499 8.555-18.499 18.36v63.092c0 9.808 7.953 17.7 18.499 18.36l23.025 1.444c.127.008.255.014.382.017.979.024 2.189.67 2.532 2.04 5.148 20.524 13.29 40.179 24.199 58.419.585.978.463 2.26-.309 3.132l-15.589 17.675c-6.983 7.916-7.013 19.122-.068 26.064l44.616 44.612c6.944 6.945 18.15 6.913 26.065-.067l17.317-15.27c.101-.089.199-.18.296-.272.703-.673 2.004-1.067 3.201-.354 18.189 10.88 37.843 19.021 58.431 24.204 1.116.278 1.946 1.279 2.019 2.433l1.473 23.494c.652 10.4 8.719 18.548 18.362 18.548.337 0 .671-.017 1-.05h61.093c.33.033.666.05 1.005.05 9.644 0 17.709-8.147 18.361-18.548l1.444-23.022c.008-.127.014-.255.017-.382.024-.979.67-2.188 2.04-2.53 20.525-5.147 40.182-13.288 58.423-24.197.977-.586 2.262-.463 3.146.318l17.673 15.536c7.936 6.983 19.137 7.029 26.057.109l44.617-44.611c6.946-6.944 6.917-18.15-.067-26.065l-15.273-17.315c-.088-.1-.179-.198-.271-.295-.672-.703-1.069-2.004-.354-3.199 10.881-18.186 19.024-37.837 24.208-58.426.235-.943 1.079-1.933 2.434-2.018l23.495-1.474c10.547-.659 18.501-8.553 18.501-18.36v-63.092c0-9.805-7.953-17.699-18.499-18.36zm-1.501 79.868-23.248 1.458c-9.908.622-18.182 7.506-20.581 17.113-4.702 18.675-12.094 36.515-21.971 53.023-5.18 8.657-3.979 19.774 2.902 27.121l14.979 16.982-42.382 42.38-17.49-15.375c-7.432-6.575-18.139-7.569-26.642-2.48-16.557 9.901-34.396 17.29-53.013 21.959-9.795 2.447-16.828 11.158-17.171 21.227l-1.418 22.607h-59.931l-1.457-23.244c-.622-9.907-7.507-18.18-17.114-20.58-18.676-4.701-36.518-12.093-53.029-21.969-8.657-5.176-19.773-3.979-27.121 2.902l-16.986 14.979-42.408-42.405 15.398-17.46c6.576-7.43 7.573-18.138 2.483-26.642-9.902-16.557-17.292-34.394-21.961-53.008-2.448-9.795-11.159-16.828-21.229-17.171l-22.611-1.418v-59.922l23.248-1.458c9.909-.622 18.182-7.506 20.582-17.113 4.702-18.674 12.094-36.514 21.971-53.023 5.18-8.656 3.979-19.773-2.9-27.119l-14.982-16.984 42.409-42.405 17.464 15.4c7.431 6.575 18.138 7.571 26.643 2.481 16.555-9.9 34.393-17.289 53.013-21.959 9.795-2.449 16.828-11.159 17.171-21.227l1.417-22.608h59.932l1.457 23.251c.622 9.908 7.507 18.18 17.132 20.585 18.673 4.7 36.508 12.089 53.011 21.961 8.656 5.175 19.771 3.977 27.118-2.902l16.989-14.982 42.409 42.406-15.404 17.464c-6.575 7.431-7.571 18.138-2.481 26.643 9.902 16.553 17.293 34.389 21.963 53.003 2.448 9.795 11.159 16.827 21.228 17.17l22.612 1.418v59.921z"/><path d="m256.001 96.001c-11.857 0-23.733 1.326-35.299 3.942-5.387 1.219-8.766 6.573-7.548 11.96 1.219 5.387 6.572 8.769 11.96 7.548 6.867-1.553 13.86-2.574 20.887-3.078v9.63c0 5.522 4.478 10 10 10s10-4.478 10-10v-9.641c18.228 1.293 35.502 6.089 51.153 13.72l-4.814 8.337c-2.762 4.782-1.123 10.898 3.66 13.66 1.574.909 3.294 1.342 4.99 1.342 3.456 0 6.817-1.794 8.67-5.002l4.799-8.311c14.718 9.996 27.44 22.718 37.436 37.436l-8.312 4.798c-4.782 2.761-6.422 8.877-3.66 13.66 1.852 3.208 5.213 5.002 8.67 5.002 1.696 0 3.415-.433 4.99-1.342l8.337-4.813c7.631 15.65 12.427 32.924 13.72 51.152h-9.64c-5.522 0-10 4.478-10 10s4.478 10 10 10h9.64c-1.293 18.228-6.089 35.502-13.72 51.153l-8.337-4.814c-4.782-2.762-10.897-1.122-13.66 3.66-2.762 4.782-1.123 10.898 3.66 13.66l8.311 4.799c-9.995 14.718-22.717 27.44-37.435 37.435l-4.799-8.311c-2.761-4.783-8.877-6.421-13.66-3.66-4.783 2.762-6.422 8.878-3.66 13.66l4.814 8.337c-15.65 7.631-32.925 12.427-51.153 13.72v-9.64c0-5.522-4.478-10-10-10s-10 4.478-10 10v9.64c-18.228-1.293-35.502-6.089-51.153-13.72l4.814-8.337c2.762-4.782 1.123-10.898-3.66-13.66-4.781-2.763-10.898-1.122-13.66 3.66l-4.799 8.311c-14.718-9.995-27.44-22.717-37.435-37.435l8.311-4.799c4.783-2.762 6.422-8.878 3.66-13.66-2.762-4.783-8.876-6.421-13.66-3.66l-8.337 4.814c-7.631-15.65-12.427-32.925-13.72-51.153h9.641c5.522 0 10-4.478 10-10s-4.478-10-10-10h-9.647c1.271-17.906 5.95-35.238 13.696-51.17l8.366 4.831c1.574.909 3.294 1.342 4.99 1.342 3.456 0 6.817-1.794 8.67-5.002 2.762-4.782 1.123-10.898-3.66-13.66l-8.354-4.823c3.928-5.791 8.302-11.323 13.119-16.535 3.749-4.056 3.5-10.382-.557-14.131-4.056-3.748-10.383-3.499-14.131.557-27.404 29.65-42.496 68.216-42.496 108.592 0 88.225 71.775 160 160 160s160-71.775 160-160-71.773-160.001-159.998-160.001z"/><path d="m256.001 146.004c-16.542 0-30 13.458-30 30v99.998c0 16.542 13.458 29.999 30 29.999 13.037 0 24.152-8.361 28.28-20h31.717c16.542 0 30-13.458 30-30s-13.458-30-30-30h-29.997v-49.997c0-16.542-13.458-30-30-30zm10 129.998c0 5.514-4.486 9.999-10 9.999s-10-4.485-10-9.999v-99.998c0-5.514 4.486-10 10-10s10 4.486 10 10zm49.997-30.001c5.514 0 10 4.486 10 10s-4.486 10-10 10h-29.997v-20z"/><path d="m181.008 136.1c1.906 0 3.835-.545 5.54-1.682 4.596-3.063 5.837-9.272 2.773-13.867-3.063-4.596-9.271-5.837-13.867-2.773l-.006.004c-4.596 3.063-5.834 9.271-2.771 13.865 1.927 2.889 5.098 4.453 8.331 4.453z"/></g></g></svg>