<svg id="Layer_1" enable-background="new 0 0 512 512" height="512" viewBox="0 0 512 512" width="512" xmlns="http://www.w3.org/2000/svg"><g><g><path d="m438.109 0h-346.328c-25.243 0-45.781 20.538-45.781 45.782v420.436c0 25.244 20.538 45.782 45.781 45.782h346.328c15.379 0 27.891-12.512 27.891-27.891v-456.218c0-15.379-12.512-27.891-27.891-27.891zm-372.109 466.218c0-14.216 11.565-25.781 25.781-25.781h314.217v51.563h-314.217c-14.216 0-25.781-11.565-25.781-25.782zm380 17.891c0 4.351-3.54 7.891-7.891 7.891h-12.111v-51.563h12.111c2.739 0 5.388-.397 7.891-1.137zm0-71.563c0 4.351-3.54 7.891-7.891 7.891h-332.108v-279.977c0-5.522-4.477-10-10-10s-10 4.478-10 10v280.346c-7.348.93-14.16 3.602-20.001 7.597v-382.621c0-12.229 8.56-22.489 20.001-25.121v29.799c0 5.522 4.477 10 10 10s10-4.478 10-10v-30.46h332.108c4.351 0 7.891 3.54 7.891 7.891z"/><path d="m278.441 127.402c1.781 0 3.456.694 4.715 1.953 3.905 3.906 10.237 3.904 14.142 0 3.905-3.906 3.905-10.237 0-14.143-3.201-3.2-7.073-5.483-11.297-6.725v-3.29c0-5.522-4.477-10-10-10s-10 4.478-10 10v5.273c-2.333 1.234-4.495 2.822-6.415 4.742-5.037 5.037-7.811 11.733-7.811 18.856s2.774 13.819 7.811 18.856l18.688 18.688c1.259 1.259 1.952 2.933 1.952 4.714 0 1.78-.693 3.455-1.953 4.714-1.259 1.26-2.933 1.953-4.713 1.953-1.781-.001-3.455-.694-4.714-1.953-3.905-3.905-10.237-3.904-14.143-.001-3.905 3.904-3.906 10.236-.001 14.142 3.201 3.202 7.073 5.484 11.298 6.727v3.289c0 5.522 4.477 10 10 10s10-4.478 10-10v-5.271c2.334-1.234 4.496-2.823 6.416-4.742 5.037-5.037 7.811-11.733 7.811-18.856 0-7.124-2.774-13.82-7.811-18.856l-18.688-18.688c-1.259-1.259-1.953-2.934-1.953-4.714s.693-3.455 1.953-4.714c1.259-1.26 2.933-1.954 4.713-1.954z"/><path d="m376.001 155.198c0-55.141-44.86-100-100-100s-100 44.859-100 100 44.86 100 100 100c9.831 0 19.332-1.433 28.313-4.089l18.677 45.801c-6.53 5.545-10.829 13.639-11.336 22.732l-76.455 20.298c-5.748-8.831-15.7-14.687-26.999-14.687-17.755 0-32.2 14.445-32.2 32.2s14.445 32.2 32.2 32.2c17.146 0 31.202-13.473 32.146-30.388l76.456-20.298c5.748 8.831 15.7 14.686 26.999 14.686 17.755 0 32.2-14.445 32.2-32.2s-14.445-32.2-32.2-32.2c-.773 0-1.536.037-2.295.091l-18.681-45.809c31.605-16.821 53.175-50.104 53.175-88.337zm-167.8 214.456c-6.727 0-12.2-5.473-12.2-12.2s5.473-12.2 12.2-12.2 12.2 5.473 12.2 12.2-5.473 12.2-12.2 12.2zm147.8-48.2c0 6.728-5.473 12.2-12.2 12.2s-12.2-5.473-12.2-12.2 5.473-12.2 12.2-12.2 12.2 5.473 12.2 12.2zm-160-166.256c0-44.112 35.888-80 80-80s80 35.888 80 80-35.888 80-80 80-80-35.887-80-80z"/><path d="m96.001 85.46c-5.523 0-10 4.48-10 10.003s4.477 10 10 10 10-4.478 10-10v-.007c0-5.522-4.477-9.996-10-9.996z"/></g></g></svg>