<svg id="Layer_1" enable-background="new 0 0 512.02 512.02" height="512" viewBox="0 0 512.02 512.02" width="512" xmlns="http://www.w3.org/2000/svg"><g><g><path d="m322.019 0c-104.767 0-190 85.233-190 190 0 37.94 11.184 73.314 30.42 103.01l-150.742 150.743c-15.596 15.597-15.595 40.974 0 56.569 7.798 7.798 18.042 11.697 28.285 11.697s20.486-3.899 28.284-11.697l150.742-150.742c29.697 19.236 65.07 30.42 103.011 30.42 104.767 0 190-85.233 190-190s-85.233-190-190-190zm-267.895 486.18c-7.798 7.798-20.486 7.798-28.284 0s-7.798-20.486 0-28.284l119.402-119.402 28.284 28.284zm133.544-133.545-28.284-28.284 14.955-14.955c8.414 10.387 17.897 19.871 28.284 28.284zm134.351 7.365c-93.738 0-170-76.262-170-170s76.262-170 170-170 170 76.262 170 170-76.262 170-170 170z"/><path d="m322.019 40c-23.285 0-45.615 5.201-66.371 15.459-4.951 2.447-6.981 8.444-4.534 13.396 2.447 4.95 8.444 6.982 13.396 4.534 17.975-8.884 37.325-13.389 57.509-13.389 71.682 0 130 58.317 130 130 0 25.418-7.339 49.151-20 69.205v-79.206c0-11.028-8.972-20-20-20h-30v-40.002c0-11.028-8.972-20-20-20h-30c-11.028 0-20 8.972-20 20v50.003h-30c-11.028 0-20 8.972-20 19.999v20.002h-30c-11.028 0-20 8.972-20 20v29.204c-12.661-20.053-20-43.786-20-69.205 0-20.185 4.504-39.532 13.386-57.504 2.447-4.951.417-10.948-4.534-13.396-4.952-2.448-10.948-.417-13.396 4.534-10.256 20.751-15.457 43.08-15.457 66.365 0 82.71 67.29 150 150 150s150-67.29 150-150-67.289-149.999-149.999-149.999zm89.999 139.999v103.719c-8.887 8.538-18.982 15.824-30 21.58v-125.299zm-49.999-60.002v193.698c-9.567 3.101-19.613 5.13-30 5.924v-199.622zm-50 70.002v.01 129.61c-10.387-.794-20.433-2.823-30-5.924v-123.695zm-50 40.002v.01 75.288c-11.017-5.757-21.113-13.043-30-21.581v-53.717z"/><path d="m223.024 101.006c2.401 0 4.811-.859 6.727-2.602 4.086-3.715 4.388-10.039.673-14.126s-10.04-4.387-14.126-.673l-.005.005c-4.086 3.715-4.385 10.037-.67 14.124 1.972 2.17 4.681 3.272 7.401 3.272z"/></g></g></svg>