<svg id="Layer_1" enable-background="new 0 0 512.001 512.001" height="512" viewBox="0 0 512.001 512.001" width="512" xmlns="http://www.w3.org/2000/svg"><g><g><path d="m256.001 0c-34.133 0-67.623 9.17-96.848 26.518-4.749 2.819-6.314 8.955-3.495 13.704 2.82 4.75 8.956 6.312 13.704 3.495 26.137-15.516 56.097-23.717 86.639-23.717 93.738 0 170 76.262 170 170 0 54.165-26.182 105.568-70.036 137.504-17.812 12.971-26.96 26.666-29.329 44.498h-141.269c-2.37-17.832-11.518-31.527-29.33-44.498-43.855-31.936-70.036-83.339-70.036-137.504 0-30.547 8.2-60.505 23.713-86.634 2.819-4.749 1.255-10.885-3.494-13.704-4.75-2.821-10.884-1.256-13.704 3.493-17.346 29.218-26.515 62.706-26.515 96.845 0 30.455 7.383 60.74 21.352 87.58 13.513 25.966 33.192 48.819 56.911 66.092 13.08 9.525 19.373 18.27 21.173 30.256-11.345 4.283-19.437 15.249-19.437 28.074 0 7.678 2.902 14.688 7.664 20-4.761 5.312-7.664 12.322-7.664 20 0 13.036 8.361 24.152 20 28.28v11.72c0 16.542 13.458 29.999 30 29.999h120c16.542 0 30-13.457 30-29.999v-11.72c11.64-4.128 20-15.244 20-28.28 0-7.678-2.902-14.688-7.663-20 4.761-5.312 7.663-12.322 7.663-20 0-12.825-8.091-23.791-19.435-28.074 1.8-11.986 8.093-20.731 21.172-30.256 23.718-17.272 43.397-40.126 56.91-66.092 13.969-26.84 21.353-57.125 21.353-87.58 0-104.767-85.233-190-189.999-190zm80 392.002c5.514 0 9.999 4.486 9.999 10s-4.485 10-9.999 10h-160c-5.514 0-10-4.486-10-10s4.486-10 10-10zm-160 40h160c5.514 0 9.999 4.486 9.999 10s-4.485 10-9.999 10h-160c-5.514 0-10-4.486-10-10s4.486-10 10-10zm140 59.999h-120c-5.514 0-10-4.485-10-9.999v-10h140v10c0 5.514-4.486 9.999-10 9.999z"/><path d="m126.001 181.064v30.776c0 7.523 5.942 13.571 13.826 14.068l8.721.547c2.396 8.621 5.834 16.922 10.25 24.744l-5.788 6.562c-5.136 5.821-5.055 14.485.186 19.726l21.764 21.762c5.24 5.238 13.904 5.322 19.725.187l6.564-5.788c7.801 4.401 16.101 7.84 24.749 10.25l.547 8.717c.486 7.766 6.666 13.85 14.069 13.85.231 0 .461-.008.688-.023h29.398c.229.016.459.023.69.023 7.402 0 13.582-6.084 14.068-13.848l.548-8.721c8.624-2.396 16.927-5.834 24.752-10.25l6.566 5.772c5.928 5.218 14.404 5.145 19.717-.169l21.766-21.762c5.239-5.239 5.32-13.903.186-19.725l-5.788-6.563c4.401-7.8 7.839-16.096 10.249-24.744l8.724-.547c7.88-.497 13.822-6.545 13.822-14.068v-30.776c0-7.527-5.944-13.575-13.825-14.068l-8.721-.548c-2.397-8.622-5.835-16.921-10.25-24.742l5.79-6.563c5.135-5.822 5.053-14.486-.188-19.726l-21.764-21.762c-5.24-5.237-13.904-5.321-19.725-.187l-6.565 5.789c-7.806-4.404-16.107-7.843-24.747-10.248l-.546-8.724c-.497-7.88-6.546-13.821-14.069-13.821h-30.78c-7.527 0-13.575 5.943-14.069 13.824l-.547 8.719c-8.623 2.396-16.924 5.834-24.748 10.249l-6.563-5.788c-5.822-5.135-14.485-5.053-19.725.187l-21.765 21.762c-5.24 5.24-5.321 13.905-.186 19.726l5.789 6.563c-4.402 7.799-7.839 16.096-10.25 24.743l-8.72.548c-7.881.492-13.825 6.54-13.825 14.067zm20 5.583 6.537-.41c7.072-.442 12.977-5.355 14.688-12.208 2.172-8.625 5.586-16.863 10.148-24.488 3.68-6.155 2.843-14.053-2.018-19.297l-4.079-4.625 13.883-13.882 4.906 4.326c5.305 4.692 12.95 5.402 19.018 1.77 7.646-4.572 15.882-7.984 24.471-10.139 6.964-1.739 11.973-7.916 12.252-15.068l.386-6.161h19.614l.409 6.542c.445 7.072 5.36 12.975 12.231 14.688 8.616 2.17 16.848 5.581 24.465 10.137 6.156 3.684 14.056 2.846 19.301-2.015l4.627-4.08 13.884 13.882-4.327 4.905c-4.693 5.306-5.403 12.95-1.77 19.02 4.573 7.644 7.985 15.879 10.14 24.467 1.74 6.965 7.916 11.972 15.069 12.25l6.163.387v19.609l-6.539.41c-7.07.443-12.974 5.356-14.686 12.208-2.173 8.627-5.586 16.865-10.145 24.485-3.685 6.155-2.849 14.055 2.015 19.301l4.079 4.624-13.877 13.875-4.911-4.318c-5.307-4.693-12.95-5.403-19.02-1.77-7.646 4.572-15.882 7.983-24.476 10.138-6.961 1.741-11.967 7.917-12.247 15.067l-.387 6.163h-19.613l-.41-6.538c-.443-7.07-5.358-12.974-12.209-14.685-8.625-2.172-16.865-5.586-24.488-10.145-6.156-3.684-14.053-2.848-19.299 2.013l-4.628 4.081-13.883-13.882 4.326-4.903c4.693-5.306 5.403-12.95 1.769-19.019-4.572-7.646-7.984-15.881-10.139-24.472-1.741-6.962-7.916-11.968-15.067-12.248l-6.166-.387v-19.608z"/><path d="m256.001 246.464c27.57 0 50-22.43 50-50s-22.43-50-50-50-50 22.43-50 50 22.43 50 50 50zm0-80c16.542 0 30 13.458 30 30s-13.458 30-30 30-30-13.458-30-30 13.458-30 30-30z"/><path d="m128.721 72.721c5.523 0 10-4.478 10-10s-4.477-10-10-10h-.007c-5.523 0-9.996 4.478-9.996 10s4.48 10 10.003 10z"/></g></g></svg>