<svg id="Layer_1" enable-background="new 0 0 512.002 512.002" height="512" viewBox="0 0 512.002 512.002" width="512" xmlns="http://www.w3.org/2000/svg"><g><g><path d="m460.889 324.659-29.395-37.627c-6.804-8.709-18.497-15.03-27.805-15.03h-37.687v-.001-242.001c0-16.542-13.458-30-30-30s-30 13.458-30 30v20.993h-100.003v-20.993c0-16.542-13.458-30-30-30s-30 13.458-30 30v30.993c0 5.522 4.478 10 10 10s10-4.478 10-10v-30.993c0-5.514 4.486-10 10-10s10 4.486 10 10v242.001.001h-20v-.001-121.008c0-5.522-4.478-10-10-10s-10 4.478-10 10v121.008.001h-37.687c-9.309 0-21.002 6.321-27.806 15.03l-29.393 37.627c-5.131 6.568-6.475 13.613-3.688 19.328 2.448 5.019 7.688 8.015 14.016 8.015h34.56v130c0 16.542 13.458 30 30 30h259.999c16.542 0 30-13.458 30-30v-130h34.56c6.328 0 11.567-2.996 14.016-8.014 2.786-5.715 1.443-12.759-3.687-19.329zm-134.886-294.659c0-5.514 4.486-10 10-10s10 4.486 10 10v242.001.001h-20v-.001zm-120.004 131.406h100.004v20.183h-100.004zm100.004-20h-100.004v-30.229h100.004zm-100.004 60.183h100.004v30.229h-100.004zm100.004-130.596v20.184h-100.004v-20.184zm-100.004 201.008v-20.183h100.004v20.183.001h-50.002zm-135.241 60.001 25.511-32.657c3.272-4.189 9.563-7.343 12.044-7.343h127.187l-25.512 32.657c-3.272 4.189-9.563 7.343-12.044 7.343zm45.244 150v-130h81.942c9.309 0 21.003-6.321 27.806-15.03l20.251-25.924v180.954h-119.999c-5.514 0-10-4.486-10-10zm279.998 0c0 5.514-4.486 10-10 10h-119.999v-180.955l20.252 25.924c6.804 8.709 18.497 15.03 27.805 15.03h81.942zm-81.943-150c-2.481 0-8.771-3.153-12.044-7.343l-25.512-32.657h127.188c2.481 0 8.771 3.153 12.044 7.343l25.512 32.657z"/><path d="m155.999 115.997c5.522 0 10-4.478 10-10v-.008c0-5.522-4.478-9.996-10-9.996s-10 4.481-10 10.004 4.477 10 10 10z"/></g></g></svg>