<svg id="Layer_1" enable-background="new 0 0 512.011 512.011" height="512" viewBox="0 0 512.011 512.011" width="512" xmlns="http://www.w3.org/2000/svg"><g><path d="m396.049 412.48c7.885-6.077 15.435-12.691 22.591-19.846 43.441-43.441 67.365-101.199 67.365-162.634s-23.924-119.193-67.365-162.635c-43.442-43.441-101.199-67.365-162.634-67.365-40.282 0-79.738 10.555-114.585 30.582l-21.494-21.483c-4.742-4.747-11.517-6.775-18.127-5.432-6.589 1.342-12.021 5.861-14.54 12.11l-13 32.477-31.518 12.616c-2.867.983-5.507 2.629-7.656 4.778-7.798 7.798-7.798 20.487 0 28.285l21.495 21.494c-20.021 34.843-30.575 74.298-30.575 114.573 0 61.435 23.924 119.193 67.365 162.634 7.155 7.155 14.706 13.769 22.591 19.846l-31.497 54.554c-4.01 6.923-5.084 14.994-3.024 22.725 2.061 7.731 7.008 14.197 13.931 18.206 4.714 2.73 9.868 4.027 14.96 4.027 10.345 0 20.426-5.36 25.978-14.946l31.47-54.508c27.594 11.455 57.448 17.462 88.226 17.462s60.632-6.006 88.226-17.461l31.477 54.52c4.01 6.923 10.476 11.87 18.207 13.93 2.568.684 5.173 1.022 7.762 1.022 5.204 0 10.339-1.369 14.962-4.046 6.923-4.01 11.871-10.476 13.931-18.207 2.061-7.73.986-15.801-3.017-22.712zm-346.149-332.933 35.768-14.318c2.539-1.016 4.551-3.028 5.567-5.567l14.572-36.399 58.59 58.558c-.105.216-.203.436-.292.66l-3.952 9.872c-8.929-6.302-20.551-7.156-30.208-2.556l-16.945-16.945c-3.905-3.905-10.237-3.905-14.143 0s-3.905 10.237 0 14.143l16.945 16.945c-4.602 9.662-3.746 21.289 2.563 30.219l-10.539 4.231-58.604-58.599c.229-.073.455-.154.678-.244zm110.046 96.818 22.387 22.387c-4.154 9.828-6.328 20.499-6.328 31.248 0 44.112 35.888 80 80 80s80-35.888 80-80-35.888-80-80-80c-10.749 0-21.42 2.175-31.248 6.328l-22.387-22.387c16.323-9.139 34.653-13.941 53.636-13.941 60.654 0 110 49.346 110 110s-49.346 110-110 110-110-49.346-110-110c0-18.985 4.801-37.313 13.94-53.635zm117.272 32.423-36.748-36.748c5.046-1.343 10.276-2.041 15.536-2.041 33.084 0 60 26.916 60 60s-26.916 60-60 60-60-26.916-60-60c0-5.26.698-10.49 2.041-15.536l36.748 36.748c5.848 5.848 13.53 8.772 21.212 8.772s15.364-2.924 21.212-8.772c5.666-5.666 8.786-13.199 8.786-21.212-.001-8.012-3.122-15.545-8.787-21.211zm-14.143 14.143c1.888 1.888 2.928 4.398 2.928 7.069 0 2.67-1.04 5.181-2.928 7.069-1.888 1.889-4.399 2.928-7.069 2.928s-5.181-1.04-7.069-2.928l-113.138-113.137c-3.898-3.898-3.898-10.241 0-14.139s10.241-3.898 14.14 0zm-144.079 264.103c-1.333 2.3-3.481 3.944-6.05 4.628-2.568.685-5.25.328-7.551-1.005-2.3-1.332-3.944-3.48-4.628-6.049-.685-2.569-.328-5.25 1.011-7.563l30.605-53.01c5.604 3.586 11.351 6.911 17.221 9.981zm-72.99-257.034c0-34.959 8.71-69.241 25.275-99.872l22.275 22.274c-4.668 9.761-8.459 19.936-11.288 30.367-1.446 5.331 1.704 10.823 7.034 12.269.876.238 1.757.351 2.623.351 4.404 0 8.438-2.932 9.646-7.385 2.845-10.491 6.777-20.696 11.708-30.401.671-.192 1.337-.412 1.994-.677l18.021-7.215 12.052 12.052c-12.663 20.482-19.34 43.905-19.34 68.236 0 71.682 58.318 130 130 130s130-58.318 130-130c0-71.683-58.318-130-130-130-24.327 0-47.754 6.678-68.237 19.34l-12.052-12.052 6.844-17.096c.442-.958.801-1.939 1.082-2.933 22.281-11.3 47.195-17.258 72.363-17.258 88.224 0 160 71.776 160 160s-71.776 160-160 160c-72.082 0-135.583-48.526-154.424-118.006-1.445-5.33-6.938-8.482-12.269-7.034-5.33 1.445-8.479 6.938-7.034 12.269 21.197 78.173 92.636 132.771 173.727 132.771 99.252 0 180-80.748 180-180s-80.748-180-180-180c-26.878 0-53.501 6.058-77.59 17.558l-22.289-22.278c30.633-16.568 64.915-25.28 99.879-25.28 115.794 0 210 94.206 210 210s-94.206 210-210 210-210-94.206-210-210zm365.238 254.609c-.685 2.568-2.329 4.717-4.629 6.049-2.3 1.333-4.983 1.689-7.55 1.005-2.569-.685-4.717-2.329-6.043-4.617l-30.616-53.029c5.87-3.07 11.617-6.395 17.221-9.981l30.612 53.021c1.333 2.301 1.689 4.983 1.005 7.552z"/><path d="m96.006 230c0-5.523-4.477-10-10-10h-.007c-5.523 0-9.996 4.477-9.996 10s4.48 10 10.003 10 10-4.477 10-10z"/></g></svg>