<svg id="Layer_1" enable-background="new 0 0 512.001 512.001" height="512" viewBox="0 0 512.001 512.001" width="512" xmlns="http://www.w3.org/2000/svg"><g><g><path d="m460.887 324.659-29.394-37.627c-6.803-8.709-18.497-15.03-27.805-15.03h-195.375c-5.523 0-10 4.477-10 10s4.477 10 10 10h27.187l-25.512 32.659c-3.272 4.189-9.562 7.341-12.044 7.341h-127.186l25.511-32.657c3.272-4.189 9.563-7.342 12.044-7.342h10c5.523 0 10-4.477 10-10s-4.477-10-10-10h-10c-9.309 0-21.002 6.321-27.805 15.03l-29.394 37.628c-5.13 6.568-6.474 13.613-3.687 19.328 2.448 5.018 7.687 8.014 14.015 8.014h34.56v130c0 16.542 13.458 30 30 30h259.998c16.542 0 30-13.458 30-30v-130h34.56c6.328 0 11.567-2.996 14.015-8.014 2.787-5.716 1.443-12.761-3.688-19.33zm-344.886 157.342v-130h81.942c9.31 0 21.003-6.321 27.805-15.03l20.252-25.925v180.955h-120c-5.513 0-9.999-4.486-9.999-10zm279.999-130v130c0 5.514-4.486 10-10 10h-119.999v-180.954l20.251 25.925c6.803 8.709 18.497 15.03 27.805 15.03zm-81.943-20c-2.481 0-8.771-3.153-12.044-7.342l-25.511-32.658h127.187c2.481 0 8.771 3.153 12.044 7.343l25.511 32.657z"/><path d="m182.891 147.819-7.805 55.144c-1.156 7.728 2.006 15.407 8.252 20.042 3.696 2.743 8.088 4.148 12.515 4.147 3.052 0 6.121-.668 8.987-2.026l51.89-24.691 49.655 24.278c6.912 3.651 15.197 3.165 21.685-1.288 6.527-4.479 9.946-12.141 8.921-19.997l-7.439-56.919 38.853-40.156c5.406-5.546 7.298-13.606 4.937-21.036-2.347-7.384-8.548-12.848-16.167-14.255l-56.392-10.505-26.182-49.355c-3.598-6.852-10.664-11.144-18.44-11.202-7.749-.051-14.876 4.135-18.582 10.941l-27.422 50.395-55.098 9.66c-7.624 1.323-13.879 6.731-16.323 14.113-2.439 7.364-.635 15.435 4.699 21.054zm-25.17-56.422c.198-.598.604-.668.774-.698l59.866-10.496c3.002-.526 5.6-2.393 7.057-5.07l29.727-54.63c.096-.177.274-.504.855-.504h.011c.622.004.811.365.901.537l28.461 53.653c1.428 2.692 4.006 4.586 7.002 5.145l61.149 11.392c.232.043.583.108.755.649.129.407.063.75-.224 1.043l-42.233 43.649c-2.12 2.19-3.124 5.228-2.729 8.25l8.064 61.699c.03.233.076.586-.407.918-.529.362-.901.162-1.042.085-.125-.068-.252-.133-.38-.196l-54.149-26.476c-2.739-1.339-5.937-1.356-8.689-.046l-56.23 26.757c-.155.073-.519.245-1.005-.115-.489-.363-.425-.792-.379-1.1l8.492-59.998c.427-3.018-.545-6.065-2.641-8.278l-42.782-45.166c-.143-.152-.412-.435-.224-1.004z"/><path d="m163.309 272.001c-5.523 0-9.996 4.477-9.996 10s4.48 10 10.003 10 10-4.477 10-10-4.477-10-10-10z"/></g></g></svg>